<?xml version="1.0" standalone="no"?>
<!DOCTYPE svg PUBLIC "-//W3C//DTD SVG 20010904//EN"
 "http://www.w3.org/TR/2001/REC-SVG-20010904/DTD/svg10.dtd">
<svg version="1.0" xmlns="http://www.w3.org/2000/svg"
 width="128.000000pt" height="128.000000pt" viewBox="0 0 128.000000 128.000000"
 preserveAspectRatio="xMidYMid meet">
<metadata>
Created by potrace 1.11, written by Peter Selinger 2001-2013
</metadata>
<g transform="translate(0.000000,128.000000) scale(0.100000,-0.100000)"
fill="#000000" stroke="none">
<path d="M565 1205 c-52 -18 -75 -49 -120 -154 -19 -47 -47 -100 -61 -118 -35
-46 -53 -104 -46 -142 7 -34 66 -101 88 -101 8 0 16 -10 19 -22 9 -35 22 -168
19 -192 -1 -11 -3 -24 -3 -28 -1 -5 -10 -8 -21 -8 -54 0 -124 -50 -157 -113
-23 -45 -21 -123 6 -174 60 -118 234 -137 320 -36 l32 37 29 -36 c99 -120 298
-74 339 78 29 110 -42 218 -159 243 -35 7 -35 7 -33 57 1 27 6 74 9 104 4 30
7 58 6 63 -1 4 15 19 36 35 85 60 98 124 44 209 -18 26 -45 77 -62 113 -55
120 -77 155 -109 174 -42 24 -125 30 -176 11z"/>
</g>
</svg>
