<svg version="1" xmlns="http://www.w3.org/2000/svg" width="1574.667" height="1574.667" viewBox="0 0 1181.000000 1181.000000"><path d="M179 .7c-27.4 3-57.5 13-80.7 26.8C47.9 57.6 14 106.3 2.7 164.8L.5 176.5v828l2.2 11.7c8 41.3 26.9 77.4 55.8 106.3 28.9 28.9 65 47.8 106.3 55.8l11.7 2.2h828l11.7-2.2c41.3-8 77.4-26.9 106.3-55.8 28.9-28.9 47.8-65 55.8-106.3l2.2-11.7v-828l-2.2-11.7c-8-41.3-26.9-77.4-55.8-106.3-28.7-28.7-64.1-47.4-105.8-55.7L1005.5.5 594 .4C367.7.4 180.9.5 179 .7zm407.5 282.7c16.6 4.3 27.9 12.6 34 24.9 6.2 12.7 7.9 27 5 42.2-3.8 20-16.2 32.8-38 39.2-5.4 1.6-13.2 1.8-84.2 2.1l-78.3.3v224.2c0 248.3.4 231.3-6.6 245.7-2.7 5.5-5.8 9.6-11.3 15.1-12.6 12.6-26.3 17.8-46.4 17.9-32 0-55.4-17-62.7-45.6-2-7.6-2-12.1-2-232.5V392.1l-78.2-.4c-70.5-.3-78.9-.5-84.7-2-25.6-6.9-39.1-25.3-39.1-53.2 0-31.4 17.9-51.1 49.5-54.4 4.4-.5 104.3-.8 222-.7 203.3.2 214.4.3 221 2zm328.4 3c57 6.9 98.6 26.5 130 61.1 20.9 23.1 35 54.3 40.7 90.1 2.2 13.9 3 46.1 1.5 60.9-2.7 27-8.3 47-19.1 69-19.6 39.8-53.6 68.7-99.2 84.3-32.1 11.1-62.3 14.6-120.2 14l-29.8-.3-2.8-9.5c-1.5-5.2-3.7-11.9-4.9-14.7-7.1-17.8-21.7-40-37.6-57.1l-6.7-7.2 6-7.8 6-7.7 55.3-.6c50.8-.6 56.2-.8 64.9-2.7 20.5-4.4 34.2-11.2 45.1-22.3 7.6-7.8 12.6-16.7 16.5-29.4 2.7-8.7 2.8-9.8 2.8-31s-.1-22.3-2.8-31c-3.9-12.7-8.9-21.6-16.5-29.4-10.9-11.1-24.6-17.9-45.1-22.3-8.5-1.9-14-2.1-52.2-2.5l-42.6-.5-3.1-9.4c-5.9-18.2-14.5-33.9-28.9-52.3-11.3-14.5-21.9-24-47.4-42.4-2.2-1.6 3.3-1.7 87.2-1.3 74.7.3 91.7.6 102.9 2zm-232 22.7c33.9 16 58.7 39.1 73.5 68.6 17.8 35.4 21.1 84.7 8.4 123.3-9.8 29.9-33.2 59.2-60.6 76l-5.3 3.2 9.3 5.2c23.8 13.2 40 28.1 53.7 49.1 14.1 21.6 21.8 46 24.3 76.7 3.8 48.1-10.6 92.7-40.1 124-32.6 34.7-81.1 54.9-143 59.8-13.3 1-158.1 1.5-158.1.5 0-.3 1.6-2.7 3.5-5.3 5.7-8 9.1-16.1 12.3-29.2 4.7-19 5.2-23.7 5.2-47.6v-22.2l59.3-.5c48.9-.4 61-.7 69.5-2.1 39.3-6.4 57.7-20 65.4-48.3 3.1-11.4 3.1-37.3 0-48.8-3.5-12.9-7.5-20.1-16.1-28.5-8.7-8.6-17.2-13.3-31.3-17.4-18.8-5.4-24.6-5.8-88-6.3l-58.8-.5V534.2l53.8-.5c44.3-.4 55.2-.7 62.2-2.1 24.6-4.8 36.9-10.3 48.2-21.6 12.9-12.9 17.2-24.7 17.2-47.5 0-20.5-3.1-30.9-12.9-43.5l-4.2-5.5 4.9-3.5c6-4.2 17.6-18.8 21.8-27.3 5-10.3 9.1-28.2 9.7-42.7.5-12.2-.7-20.5-5.3-37.8l-.7-2.3 5.9 2.2c3.3 1.1 10.6 4.3 16.3 7z"/></svg>