<svg version="1" xmlns="http://www.w3.org/2000/svg" width="3509.333" height="3509.333" viewBox="0 0 2632.000000 2632.000000"><path d="M0 571.9v570.8l8.2.7c4.6.3 13.3.8 19.3 1.1 6.1.3 12 .8 13.3 1.1 1.9.4 34.6 2.9 51.2 3.9 3 .2 8.7.6 12.5 1 3.9.3 11.3.8 16.5 1 5.2.3 11.1.7 13 1 3.3.5 53.6 4.2 87 6.5 8 .5 16.5 1.2 19 1.5 2.5.2 9.5.7 15.5 1 6.1.3 13 .8 15.5 1 2.5.3 7.2.7 10.5 1 3.3.2 14.3 1.1 24.5 1.9 10.2.8 22.6 1.8 27.5 2.2 5 .3 9.7.7 10.5.9.8.1 7.6.6 15 1s14.4.9 15.5 1c1.1.2 16.2 1.5 33.5 2.9s33.8 2.8 36.5 3.1c2.8.2 7.7.7 11 .9 13.7 1.2 29.3 2.7 33 3.1 2.2.3 13 1.2 24 2s22.3 1.7 25 2c2.8.3 12.7 1.2 22 2 9.4.8 21.5 2 27 2.5 5.5.6 21.7 2.1 36 3.5s27.4 2.7 29 3c1.7.2 5.9.7 9.5 1 7.3.7 44.1 4.7 65.5 7.1 28 3.1 102.1 12.5 107.5 13.6 3 .6 14.1 1.3 24.5 1.5l19 .4 9.4-15.8c5.1-8.7 12-20.2 15.2-25.6 3.3-5.4 5.5-9.5 4.9-9.2-.6.3-.7-.1-.4-.9.3-.9 1-1.4 1.4-1.1 1.1.7 2-2.2 1.4-4.3-.5-1.3-.4-1.4.4-.3.7 1 1.9-.3 4.8-5.5 2.2-3.8 3.9-7.6 4-8.4.1-.8.2-3.6.3-6.3 0-2.6.4-4.7.9-4.7.4 0 .6 2.1.5 4.6-.2 6.3.8 4.8 1.2-1.8.1-2.9.6-6.1 1-7.2.5-1.2.3-2.1-.6-2.7-1-.6-1-.9-.2-.9 1.6 0 4.3-5.2 4.3-8.3 0-1.3.9-3.6 2.1-5.1 1.5-2 1.8-3 1-4-.7-.9-.7-1.6.1-2.4.8-.8.8-1.5-.2-2.7-1-1.2-1-1.5.3-1.5 1 0 1.7-1.5 2.1-4.5.4-2.5 1.1-4.5 1.7-4.5.5 0 .9-.5.9-1 0-.6-.7-1-1.5-1s-1.5-.5-1.5-1c0-1.4 2.3-1.3 3.8.2.9.9 1.2.9 1.2 0 0-.7-.4-1.2-1-1.2-.5 0-1-.7-1-1.5s.7-1.5 1.5-1.5c1.2 0 1.4-.8.9-4-.4-2.5-.3-4 .4-4 .6 0 1.3.6 1.5 1.2.2.7.3 0 .1-1.5-.2-1.8.3-3.6 1.7-5 1.8-1.9 1.8-2.3.4-3.3-1.7-1.3-2-2.4-.4-2.4s4.3-3 3.4-3.8c-.4-.4-1-.1-1.2.5-.5 1.5-3.3 1.8-3.3.4 0-.5 1.3-1.2 2.9-1.6 2.3-.5 3-1.3 3.4-3.8 1.3-7.5 3.2-12.7 4.6-12.7 1.2 0 1.2-.3.3-1.2-1.8-1.8-1.4-3.2.4-1.7 1.5 1.2 1.6 1.1 1-.9-.4-1.3-.3-2.2.3-2.2s1.5-1.9 2.2-4.3c2.5-9 3-10.4 4.8-12.4 1-1.1 2.4-4.5 3.1-7.6.7-3.2 2.3-6.7 3.8-8.2 2-2.2 2.2-2.9 1.1-3.6-1-.6-1-.9-.1-.9.6 0 1.2-1.1 1.2-2.5s.6-2.5 1.3-2.5c.6-.1 2.1-2 3.2-4.3s3.1-4.8 4.5-5.4l2.5-1.3-2.2-.6c-2.9-.8-2.9-1.1.2-4 1.4-1.3 2.5-3.4 2.5-4.9 0-1.6 1-3.5 2.2-4.6 1.3-1 1.8-1.8 1.1-1.9-1.6 0 .8-5 2.5-5 .6 0 1.2-.6 1.2-1.4 0-.7.6-1.9 1.4-2.6.8-.6 1.6-2.1 1.8-3.3.2-1.2.9-2.1 1.5-2 .7.2 1-.4.7-1.1-.3-.8.2-1.6 1.3-1.9 1.6-.4 1.6-.5.1-.6-2.5-.1-2.2-2.1.3-2.1 1.1 0 1.8-.4 1.4-.9-.3-.5.6-2.6 2-4.7 1.4-2 2.5-4.5 2.5-5.5 0-1.1.7-1.9 1.5-1.9.9 0 2-1.1 2.5-2.5s1.6-2.5 2.5-2.5c.8 0 1.5-.8 1.5-1.8s.9-2.8 2-4c1.1-1.1 1.7-2.7 1.4-3.5-.3-.8.2-2 1.1-2.7.8-.7 1.5-1.9 1.5-2.6 0-.8.4-1.4.8-1.4.5 0 1.5-1.1 2.2-2.5.7-1.4 1.9-2.5 2.5-2.5 2.1 0 3.3-2.4 2.4-4.5-.4-1.1-.8-1.4-.8-.6-.1.8-.3 1.2-.6.9-.3-.3-.2-1.3.1-2.3.6-1.5.8-1.5 2 .6l1.3 2.4 1.3-3.3c.7-1.7 1.8-3.2 2.5-3.2.9 0 1.1-.8.7-2.5-.7-2.8.7-3.3 2.6-1 2 2.4 3.2 1.7 1.6-.8-1.9-2.8-1.1-6.3 1.6-7 1.1-.3 2.2-1.5 2.5-2.6.5-1.9 1.4-2.5 3.4-2.3.3.1.4-1 .1-2.3-.3-1.8 0-2.5 1.1-2.5.9 0 2.1-.9 2.7-2 .6-1.1 1.7-2 2.5-2 1.8 0 2-2 .3-2-.7 0-.4-.6.6-1.2 1.5-.8 2.1-.7 2.8.6.5.9 1.4 1.4 1.9 1 .6-.4.4-1.3-.6-2.4-2-2.2-.7-5.5 2.5-6.5 1.1-.3 2-1.5 2-2.6 0-1 .7-1.9 1.5-1.9 1.8 0 6.5-4.7 6.5-6.5 0-.8.6-1.5 1.4-1.5.8 0 2.8-1.5 4.4-3.4 2.6-3 3.1-3.2 3.7-1.8.6 1.5.8 1.4 1.8-.6.5-1.2 1.6-2.2 2.4-2.2.9 0 1.3-1.3 1.3-4 0-3.2.4-4 1.8-4 1 0 2.9-1.1 4.2-2.5 1.3-1.4 3-2.5 3.7-2.5.8 0 1.6-.7 1.9-1.5.4-.8 1.3-1.5 2-1.5.8 0 1.8-.8 2.1-1.8.6-1.4.8-1.3 1.4.8.6 2 .7 1.6.9-2 .1-3.8.7-4.9 3.6-7.3 1.9-1.6 3.4-2.4 3.4-1.8 0 .6 1.1 1.1 2.5 1.1 1.5 0 2.5-.6 2.5-1.5 0-1.7 3.6-3.9 5-3 .5.3.7 0 .4-.8-.6-1.6 2.6-9.7 3.8-9.7 1.4 0 .8 2.4-1.2 5-2.1 2.6-2.6 4.5-1.1 3.5.5-.3 2.3-3 3.9-6 1.7-3 2.5-5.2 2-4.9-.6.4-.8.1-.6-.7.3-.8 1-1.3 1.6-1.2 1 .2 3.4-3.3 7.7-11 1.4-2.4 16.3-27.5 18.6-31.2 9-14.3 14.8-24.9 14.2-25.7-.3-.6-.2-.8.3-.5.6.3 3-2.9 5.6-7.1 2.5-4.2 12.3-20.8 21.8-36.7 9.5-16 21.8-36.7 27.3-46 5.6-9.4 13.8-23.1 18.3-30.5 6.5-10.9 16.8-28 23.9-40.2.6-.9 3.2-5.4 6-10 2.7-4.6 5.7-9.7 6.6-11.3 1-1.7 2.2-2.9 2.9-2.7.6.1.9-.2.5-.8-.3-.5 2.1-5.4 5.3-10.7 3.3-5.4 8.5-14.2 11.7-19.6 5-8.7 5.9-9.7 7.3-8.5 1.5 1.2 1.6 1.1.4-.4-1.2-1.5-.8-2.8 3.5-9.8 2.6-4.4 6.2-10.5 7.8-13.4 1.7-2.9 3.5-6 4.1-6.7.6-.8 3-4.9 5.4-9.2 3.8-7 4.3-7.6 5.4-6 .7 1 15.1 25.2 32.1 53.8 16.9 28.6 35.6 60.1 41.5 70 5.9 9.9 17.9 30.1 26.7 45 8.8 14.8 21.6 36.4 28.5 48 6.8 11.5 17.3 29.2 23.2 39.2 6.3 10.6 11.3 18 11.9 17.6.6-.3.7-.1.3.6-.8 1.2 14.4 27.5 17.3 29.9.9.7 1 1.1.4.7-1.2-.6 4.1 8.9 10.3 18.6 1.6 2.4 2.9 4.6 2.9 4.9 0 .3 1.6 3 3.4 6.2 3.4 5.5 5.3 6.4 6.6 3 .5-1.4.4-1.5-.6-.5-1.6 1.6-3.3 1.7-2.3.1.4-.7.3-.8-.4-.4s-1.4-.3-1.8-1.9c-.3-1.4-1-2.5-1.6-2.5-.5 0-.6-.5-.3-1 .4-.6 1-.8 1.5-.5.9.5.7-.8-.5-5.1-.4-1.3-.2-2.5.6-2.9.8-.5 1-.4.5.4-.4.6.1 2.9 1 5.1 1.3 3 2.2 3.9 3.5 3.5 1.2-.4 2 .1 2.4 1.4.3 1.1 1.2 1.8 1.9 1.5.6-.2 2.4.9 3.9 2.6 1.5 1.7 3.2 2.8 3.7 2.5.6-.4 1.3.1 1.6.9.3.9 1.3 1.6 2.1 1.6 1.9 0 4.3 2.5 4.3 4.4 0 .9.7 1.6 1.5 1.6s1.5.4 1.5 1c0 1.4 3.7 1.2 4.4-.3.4-.6.4-.2.2.9-.2 1.2-.1 2.6.3 3.1 1.3 1.8 6.3 4.4 7.6 4 .8-.4 1.1.1.8 1.1-.2 1 .5 2.2 1.7 3 1.2.7 2 .8 2 .2 0-.5.4-1 1-1 .5 0 .7.7.4 1.5-.4.8.1 1.7 1 2.1.9.3 1.6 1.5 1.6 2.6 0 1.7.3 1.8 1.5.8.8-.7 1.6-1 1.6-.6.1.3.2 1 .3 1.4.3 2 7.8 8.2 9.9 8.2 1.7 0 1.9.2.7 1-1.7 1.1-1.5 1.3 3 3.4 6.1 2.9 7.6 4.1 7.2 5.8-.2 1 0 1.8.5 1.8 1 0 10.7 9.2 13.8 13 2.9 3.6 8 7 10.8 7.2 1.9.2 2.3.7 1.9 2.2-.5 2-.5 2-1.3 0-.4-1-.8-1.4-.8-.7-.1.6-.4 2-.7 3-.5 1.5-.4 1.5.5.3.9-1.3 1.1-1.3 1.1 0 .1.9.6.5 1.4-1l1.4-2.4 1.3 4.2c.6 2.3 1.7 4.2 2.2 4.2 2.1 0 7.7 6.9 7.7 9.5 0 1.7.5 2.5 1.8 2.5 1 0 2.7.7 3.8 1.5 1.3 1 3.3 1.2 6.7.8 3.9-.4 4.6-.3 4.2 1-.4.8.1 1.7 1 2.1.9.3 1.3 1.1 1 1.6-.4.7.2.9 1.9.4 2.7-.6 3.7.9 1.4 2-.7.3.1.4 1.7.1 1.7-.2 2.4-.2 1.7.1-2.5 1.1-1.1 2.4 2.8 2.4 2.9 0 4 .4 4 1.5 0 .8.5 1.5 1 1.5.6 0 1 .7 1 1.5 0 1.3 1.4 1.7 6 1.7.3 0 2.3-.3 4.4-.7 3.5-.6 3.8-.5 2.7.8-.9 1.1-.9 1.7-.1 2.2.6.4.9 1.4.5 2.3-.3.9-.3 1.3 0 1 .4-.4 2.5 0 4.7.8 2.2.7 6.3 1.4 9.1 1.5 8.8.1 10.7.7 10.7 3.5s.7 2.9 4.6.9c2.6-1.3 3-1.3 4.1.1.7.9 1.9 1.4 2.7 1.1.9-.4 1.9-.1 2.3.6.5.7 2.8 1.9 5.3 2.7 2.5.8 4.8 1.9 5.2 2.4.4.6 1 .7 1.4.3.4-.3.1-1.3-.6-2.2-1-1.3-.9-1.5.8-1.5 1.2 0 2.3.9 2.7 2.2.6 2 .8 2 1.2.5.5-1.8 1.9-2.3 2.5-.9.2.5 2 1.2 4.1 1.5 2.8.4 3.7.2 3.7-.9 0-1.2.4-1.2 3.1.1 1.7.9 3.7 1.4 4.5 1.1 2.3-.9 6.2 1.5 6.9 4.3.4 1.4 1 2 1.2 1.3.3-.7 2.3-1.2 5.3-1.2 2.8 0 5-.5 5.2-1.2.5-1.5 15.9-1.2 16.9.3.4.7 1.6.8 2.9.4 1.3-.4 2-.3 1.7.2-.4.6 1.2.8 3.8.6 2.8-.3 4.5 0 4.5.6s-.5 1.1-1.1 1.1c-.5 0-.8.3-.5.8.2.4 2.5.6 5 .4 3.4-.3 4.6-.8 4.7-2.1 0-1.1.3-.9.9.6.5 1.3 1.3 2.3 1.9 2.3.5 0 1.2-1 1.5-2.3l.7-2.2 1.1 2.2c1.2 2.5 4 2.8 13.3 1.3 4.7-.7 4.5-.7-3.2-.9-6.7-.1-8.3-.4-8.3-1.6 0-1.1.7-1.4 2.4-.9 1.3.3 3.3.1 4.4-.5 1.2-.7 2.3-.7 2.6-.2.4.5 0 1.2-.6 1.5-.7.3.7.5 3.2.4 2.6-.1 5.9.6 7.8 1.6 2.3 1.2 5.5 1.7 10 1.7 19.7-.3 18.2-.4 18.2 2.1 0 1.9.2 2 1 .8.9-1.3 1.1-1.3 2.1 0 .8 1.1 1.2 1.2 1.6.2.7-1.9 2.6-1.4 1.9.5-.6 1.7-.5 1.7.7.2.9-1.2 3.7-1.9 9-2.4 6.7-.6 7.7-.5 7.7.9 0 1.2 1 1.6 4.5 1.6 4.1 0 4.5-.2 4.2-2.3-.2-1.2-.2-1.6 0-1 .3.7 1.1 1.3 1.9 1.3 2.1 0 1.7 1.6-.8 2.8-1.9.9-.7 1.1 5.9 1.1 4.6.1 8.2-.2 8.2-.7-.4-2.6.2-3.2 2-2.2 2.5 1.3 5.8 1.3 6.3 0 .2-.6.8-.6 1.8 0 1.3.8 1.2 1-.2 1-1 0-1.8.7-1.8 1.5 0 1.2 1.5 1.5 7.9 1.5 5.4 0 8.1.4 8.4 1.2.3.7.6.1.6-1.5.1-3.7 1.6-3.4 3.1.5l1.1 3.3 2.4-2.7c1.3-1.6 2.7-2.3 3-1.8.3.6.4 1.4.1 1.9-.3.5.3 1.1 1.4 1.4 1 .3 2.1 0 2.4-.7.3-.8.7-.7 1.4.3.8 1 1.3.8 2.5-1 .9-1.2 2-2 2.4-1.6.3.4.1 1.3-.5 1.9-1.5 1.5-1.6 4.8-.2 4.8.6 0 1-.4 1-.9 0-.6.9-.9 1.9-.8 2.7.2 1.7 1.4-1.7 2.1-1.5.4-5.4 2-8.7 3.7-3.3 1.6-5.3 2.8-4.5 2.6 2.4-.7 30-11.6 36-14.2 3-1.3 16.1-6.6 29-11.8 12.9-5.2 33.2-13.4 45-18.2 11.8-4.8 36.8-15 55.5-22.5 42.6-17.3 75.3-30.5 101-41 26.9-10.9 82.8-33.4 94.5-38 14.7-5.8 44.6-17.7 53.5-21.4 4.4-1.8 10.3-4.1 13-5.1 2.8-1 6.4-2.3 8-3.1 9.2-3.9 19.2-7.6 22.1-8.1 2-.3 3.1-1 2.7-1.6-.4-.6.2-.8 1.5-.5 1.2.4 2.2.3 2.2-.1 0-1.6 18.5-8.5 20.1-7.5.8.5.9.3.4-.5-.5-.9-.2-1.2 1.1-.9 1.1.2 2.8-.4 3.8-1.4 1.1-1 3.6-1.8 5.5-1.9 2 0 3-.3 2.2-.6-1.4-.6 8.3-4.4 11.2-4.4.9 0 1.7-.6 1.7-1.3 0-.7.6-1.3 1.4-1.3.8 0 3.7-1 6.6-2.2 2.8-1.2 6.1-2.1 7.3-1.9 1.2.1 2.3-.1 2.4-.6.2-1.4 2.6-2.6 5-2.6 1.2 0 2.4-.6 2.6-1.3.4-.9.6-.9.6 0 .1.7.6 1.3 1.2 1.3s.9-.7.5-1.5c-.3-.8-.1-1.5.3-1.5.5 0 1.7-.3 2.7-.7 1.2-.4 1.5-.3 1 .5-1.1 1.9.9 1.4 3.8-.9 2.3-1.8 2.6-1.8 2.6-.4 0 1.2.5 1.5 1.6 1.1.9-.3 2.3-.6 3.1-.6 1.3 0 1.3-.3.3-1.5-1-1.3-.9-1.5 1.2-1.5 3.2 0 8.8-1.9 8.8-3 0-.5 1-1 2.3-1.2 1.2-.2 2.1-.9 2-1.5-.2-.7.4-1 1.2-.6 1.1.3 1.2.9.6 1.7-.7.8.1 1 2.9.8 2.3-.2 3.8-.9 3.7-1.6-.1-.6.7-1 1.7-.8 1.1.2 3.4.1 5.3-.3 3-.5 3.2-.8 2.2-2.7-.8-1.5-.8-2.2.1-2.8 1-.6 1-.9-.1-1.2-.8-.3 0-.2 1.6.1 3.5.7 12.6.4 13.4-.5.3-.3-.1-.9-.9-1.4-1.1-.7-.1-1 3.3-1 3.3 0 5.4-.6 6.8-1.9 2.6-2.4 6.1-3.1 10.5-2.1 3.2.7 3.4.6 3.4-1.8 0-2 .3-2.3 1.2-1.4 1.7 1.7 7.8 1.6 7.8-.1 0-.8.9-2.2 2-3.2 2-1.8 3.5-1.4 3.5.8 0 .7.7 1.2 1.5 1.2s1.4-.8 1.4-1.8c-.1-1 .5-1.7 1.7-1.7 1.1 0 1.9-.4 1.9-.9s1-1.2 2.3-1.6c5.5-1.5 9.8-3.9 9.3-5.2-.9-2.3.3-1.4 1.8 1.4 1.5 2.7 1.6 2.7 2.2.6.7-2.4 3-2.1 3.7.5.4 1.5.5 1.5.6.1 0-.9 1.2-2.1 2.6-2.7 1.4-.6 2.5-1.6 2.5-2.2 0-.5.3-.9.8-.9.4.1 2.8.1 5.5 0l4.7-.1V1H0v570.9zM2578 714c0 .5-.2 1-.4 1-.3 0-.8-.5-1.1-1-.3-.6-.1-1 .4-1 .6 0 1.1.4 1.1 1zm-31.2 13.1c-1.8 1.2-4.5 1.1-5.3-.1-.3-.6.1-.7.9-.4.9.3 1.6.2 1.6-.4 0-.6.9-.8 2.1-.5 1.6.4 1.7.8.7 1.4zM2533 729c-1.2.8-1.2 1-.1 1 .8 0 1.2.3.8.6-.9.9-2.8-.6-2.2-1.7.4-.5 1.2-.9 1.8-.9.7 0 .6.4-.3 1zm-5 3.8c0 1.4-2.3 3.2-3.9 3.1-1.1 0-1-.3.4-.9 1.7-.7 1.6-.9-1-1l-3-.2 3-.8c4.3-1.1 4.5-1.1 4.5-.2zm-1016.7 29.7c-.3.9-.8 1.4-1 1.1-.3-.3-.2-.9.2-1.5.9-1.6 1.5-1.3.8.4zm7.3 16.6c.5-.1.9 1.1.9 2.5.1 2.2-.1 2.3-1.1 1-.6-.9-1.4-1.3-1.8-.9-.4.4-.4-.1 0-1.1.5-1.3.4-1.7-.4-1.2s-1 .2-.5-.9c.4-1.2.8-1.3 1.3-.5.4.6 1.1 1.1 1.6 1.1zm6.2 7.7c-.9 1.1-1.3 1.1-2 0-.7-.9-.8-.5-.4 1.2.5 2.4.4 2.4-.9.6-1.6-2.1-.8-3.2 2.4-3.2 1.5 0 1.7.3.9 1.4zm1 7.6c-.5.6-1.3.5-2-.3-1.1-1.1-1-1.2 0-.7 1 .6 1.1.1.7-2.1l-.7-2.8 1.5 2.5c.8 1.4 1 2.9.5 3.4zm-403 2.1c-.6 1.4-1.3 2.3-1.5 2.1-.5-.5 1.5-4.6 2.2-4.6.3 0-.1 1.1-.7 2.5zm3.5 0c-.3.9-.8 1.4-1 1.1-.3-.3-.2-.9.2-1.5.9-1.6 1.5-1.3.8.4zm-3.2 3.8c-1 .9-1.1.8-.5-.6.3-1 .9-1.5 1.2-1.2.3.3 0 1.1-.7 1.8zm-8.1 8.9c0 .7-.4 1.9-.9 2.6-.6 1.1-.9.9-1.4-.7-.2-1.1-.2-2.2.1-2.5 1-1 2.2-.6 2.2.6zm-3 7.2c-1.5 1.5-2.2.1-1.4-3l.7-2.8.9 2.4c.5 1.4.5 2.7-.2 3.4zm-4 0c0 1.4-2.9 3.1-3.7 2.2-.6-.6 1.9-3.5 3-3.6.4 0 .7.6.7 1.4zm-12 10.2c0 .8-.4 1.2-1 .9-.5-.3-1-1-1-1.6 0-.5.5-.9 1-.9.6 0 1 .7 1 1.6zm-4.2 4.1c-.2 1-1.1 1.9-2.1 2.1-1.6.3-1.7.1-.5-1.7 1.6-2.5 3.1-2.7 2.6-.4zM1652 895c.8.5 1.3 1 1 1.1-.3 0-1.5.2-2.7.5-1.6.3-2.3-.1-2.3-1.1 0-1.7 1.8-1.9 4-.5zm122.3 39.7c-1.3.2-3.3.2-4.5 0-1.3-.2-.3-.4 2.2-.4s3.5.2 2.3.4zm64.7 1.3c0 .5-.7 1-1.5 1s-1.5-.5-1.5-1c0-.6.7-1 1.5-1s1.5.4 1.5 1zm74 7c1.5 0 3.2.6 3.8 1.3.8 1 .2 1.3-3.1 1.3-3.8 0-4.2-.3-4.3-2.6-.1-1.4.1-1.9.3-1.3.3.7 1.7 1.3 3.3 1.3zm57.1 4.8c-.7.2-1.8-.1-2.3-.6-.8-.8-.4-.9 1.3-.5 1.3.4 1.8.8 1 1.1zm1.4 2.2c1.8.8 1.7.9-.7.9-1.6.1-2.8-.4-2.8-.9 0-1.2.8-1.2 3.5 0zm5.2-.4c-.3.3-1.2.4-1.9.1-.8-.3-.5-.6.6-.6 1.1-.1 1.7.2 1.3.5zm-1056 183.6c-.3.8-.6.5-.6-.6-.1-1.1.2-1.7.5-1.3.3.3.4 1.2.1 1.9zm-6.3 13.4c.3.8.2 1.2-.4.9-.6-.3-1-1-1-1.6 0-1.4.7-1.1 1.4.7zm2.2 4.6c-1.8 2.6-2.2 1.7-.5-1.4.6-1.1 1.3-1.7 1.6-1.5.3.3-.2 1.6-1.1 2.9z"/><path d="M1323.1 470.6c-1.2 2.7-1.1 2.8.4 1.2 1-.9 1.6-2.1 1.3-2.8-.2-.7-1 .1-1.7 1.6zM1324.3 477c0 2.5.2 3.5.4 2.2.2-1.2.2-3.2 0-4.5-.2-1.2-.4-.2-.4 2.3zM1292.2 524c-1.8 2.9-1.5 3.8.4 1.2.9-1.3 1.4-2.5 1.2-2.7-.2-.2-.9.5-1.6 1.5zM2630 746.4c0 1.2-.7 1.3-3.2.5-4.3-1.2-5.4-1.1-4.1.2 1.4 1.4-.6 3.9-3.1 3.9-.9 0-1.6.4-1.6 1 0 .5-.9 1-2 1s-2 .4-2 .8c0 .5-1.3.9-3 .9-1.6 0-2.7-.4-2.5-.8.3-.4-.5-.5-1.7-.1-2 .5-2 .6-.4 1.2 1.6.5 1.6.8-.8 2.3-1.5 1-3.1 1.5-3.7 1.1-.6-.3-2.1.4-3.4 1.6-1.3 1.2-2.8 1.9-3.4 1.5-.6-.3-1.1-.1-1.1.6 0 1-.3 1-1.2.1-1.6-1.6-3.1-1.5-2.5.2.3.8-.1 1.7-.9 2-.8.3-1.4.1-1.4-.4 0-.6-.5-1-1.1-1-.6 0-.8.7-.5 1.6.3.8.2 1.2-.4.9-.6-.4-1.7.1-2.6.9-.8.9-2.6 1.6-3.8 1.6-1.3 0-2.9.7-3.6 1.5-.7.8-1.7 1.5-2.2 1.5-.5 0-3.4 1.2-6.3 2.6-3 1.4-5.9 2.3-6.5 1.9-.5-.3-1-.2-1 .3 0 .9-5.7 3.5-25 11.4-4.1 1.7-9.5 4-12 5.1-2.5 1.1-6.1 2.5-8 3.2-1.9.7-5.5 2.2-8 3.3-2.5 1.1-12.4 5.3-22 9.2-9.6 3.9-18.4 7.5-19.5 8-3.4 1.5-46.3 19.2-91 37.5-23.6 9.7-50.4 20.7-59.5 24.4-9.1 3.8-23.5 9.7-32 13.1-15.4 6.2-58.6 23.9-100 41-11.8 4.8-30 12.3-40.5 16.6-20.5 8.3-46.9 19.2-65.7 26.9-7.5 3.1-11.3 5.2-10.5 5.7.6.4 1.9.7 2.7.7 1 0 .8-.3-.5-.9-1.9-.8-1.9-.9.2-.9 1.2-.1 4.2-1 6.8-2.1 5.6-2.4 5.6-2.4 4.9-.5-.4.8-1.5 1.5-2.5 1.5s-1.9.4-1.9 1c0 .5 1.2 1 2.6 1 2.5 0 2.6.2 2.1 3.7-.3 2.1-.3 3-.1 2 .4-1.2 1.6-1.7 4.2-1.8 2-.1 5.5-.2 7.8-.3 3.4-.1 4 .2 3.6 1.6-.4 1.5.3 1.8 3.7 1.8 2.5 0 4.1-.5 4.1-1.2s1.8.6 4.1 2.7c2.5 2.6 3.8 4.6 3.5 5.7-.6 2.4-.1 2.3 2.4-.5 1.9-2 2.3-2 3.3-.6.8 1 3.3 1.8 6.7 2.1 6.7.6 14.1 3.5 12.1 4.7-1.1.7-.9 1.3.8 3 2.6 2.6 4.6 1.9 3.1-1-2.1-3.8 1.5-2 4.2 2.3l2.7 4.1 1.2-2.9 1.2-2.9 1 2.7c.6 1.6 1.6 2.8 2.3 2.8.7 0 1.6.9 1.9 2 .6 1.7 1.2 2 4.1 1.4 2.2-.4 3.4-.2 3.4.5 0 .6.9 1.1 2 1.1s2-.5 2-1c0-2.1 3.1-.9 4.2 1.6 1.1 2.4 1.6 2.6 6.6 2.2 2.9-.3 4.8-.2 4.2.2-.8.5-.6 1.3.7 2.5 1.7 1.7 1.8 1.7 2.3-.5.3-1.3 1.1-2.5 1.8-2.6.7-.1.8 0 .2.3-2 1-1 3.3 1.5 3.3 1.8 0 2.5.5 2.5 1.9s-.5 1.8-2 1.4c-1.2-.3-2 0-2 .7s1.4 1.1 3.8.9c2-.1 5.2-.1 7 0 3.1.1 3.2.3 3.2 4.1v4h4c2.5 0 4 .5 4 1.2.1 2.1 5.1 7.5 5.7 6 .7-1.8 2.4-1.4 2.1.5-.2 1.5.5 1.9 4 2.1 3.7.3 4.2.1 4.2-1.7 0-1.2.5-2.1 1-2.1.6 0 1 .4 1 1 0 .5.7 1 1.5 1 1.1 0 1.5 1.1 1.5 4s.4 4 1.5 4 1.5-1.2 1.6-4.3c.1-4 .1-4.1 1.1-1.5.9 2.7 2.8 3.9 2.8 1.8 0-2.1 1.9-.9 2.8 1.7 1 2.8 1 2.7 1.1-1 .1-4 1.1-4.6 3.5-2.2.8.8 2.2 1.5 3.1 1.5 1.2 0 1.6.6 1.2 2-.4 1.7 0 2 2.3 2 2.7 0 2.9-.3 3.3-4.3l.4-4.2.1 4.2c.1 2.4.7 4.3 1.2 4.3.6 0 1 1.8 1 4v4h8c5.2 0 8-.4 8-1.1 0-.8.4-.8 1.3-.1.6.6 2.6 1.2 4.2 1.5 2.4.3 2.2.4-1.2.6-3.9.1-4.3.3-4.3 2.6 0 2.2.4 2.5 4 2.5 2.2 0 4 .4 4 1s-3.3 1-8 1c-9.1 0-10.8 1.7-4 4 3.9 1.3 5.2 3.4 2.8 4.3-1 .4-1 .7 0 1.8.6.7 1.2 2.3 1.2 3.6 0 2 .5 2.3 4 2.3 3.1 0 4 .4 4 1.7 0 2.6 4.4 6.3 7.4 6.3 1.5 0 2.5.5 2.3 1.2-.1.7.8 1.4 2.1 1.6 2.3.4 3.1-1.3 1-2.1-.7-.3 2.9-.6 8-.6 5-.1 9.2-.5 9.2-1s.7-.8 1.5-.7c1.8.3 3.2 1.6 1.7 1.6-.7 0-1.2 1.6-1.2 4 0 2.2.5 4 1 4 .6 0 1 .7 1 1.6 0 1.1.6 1.4 2 .9 1.3-.4 2.2-.1 2.6.9.4 1.2 2 1.6 5.4 1.6 3 0 5.2.6 6 1.5 1 1.2 1 1.5-.4 1.5-.9 0-1.6.4-1.6 1 0 .5 1.8 1 4 1 3.8 0 4 .2 4 3 0 1.6.5 3 1 3 .6 0 1 1.8 1 4s.5 4 1 4c.6 0 1-1.8 1-4 0-5.7 2.7-5.5 3.3.2l.4 4.3.1-4.3c.2-5.3 2.2-5.6 2.2-.2 0 2.2.4 4 .9 4s1.1.8 1.4 1.8c.2 1.1 1.4 2.2 2.7 2.5 1.9.5 2.1.3 1.6-1.9-.6-2.3-.5-2.3 1.4-1.2 1.1.7 2 2.1 2 3 0 1 .5 1.8 1.1 1.8.6 0 .9.6.6 1.4-.9 2.2 2.6 4.6 6.6 4.6 3 0 3.7-.4 3.7-2 0-1.1.7-2 1.5-2 .9 0 1.2.6.9 1.5-.4.8-.1 2.2.6 3 1.4 1.7 5 2 5 .5 0-.6 1.8-1 4-1 2.9 0 4 .4 4 1.5 0 .8.6 1.5 1.3 1.5 1.4 0 4.7 3.5 4.7 5 0 .6.5 1 1 1 .6 0 1 .5 1 1.1 0 1.6 2.6 3.9 4.4 3.9.9 0 1.6.4 1.6 1 0 .5.6 1 1.3 1 .8 0 2.2.9 3.2 2 1.4 1.5 2.1 1.7 3.2.9.7-.7 1.7-.9 2-.5.4.4.1 1.1-.7 1.6-1.1.7-1.1 1.4-.3 3.2l1.1 2.3.7-2.8c.8-2.9 2.5-3.7 2.5-1.2 0 .8.5 1.5 1 1.5.6 0 1-.7 1-1.5s.5-1.5 1-1.5c.6 0 1 .7 1 1.5 0 1.1 1.2 1.5 4.5 1.5 2.5 0 4.5.4 4.5 1 0 .5.9 1 2 1 2.7 0 2.5 1.8-.2 2.3-1.3.2-.5.5 1.8.6 3.5.1 4.2.5 5.6 3.3l1.6 3.3 1.2-3c1.4-3.5 2.1-2.6 4.7 5.5 1.6 5.2 1.7 5.3 2.1 2.2.2-1.7.8-3.2 1.4-3.2.6 0 .8.8.6 1.8-.3 1.1.1 3 .8 4.3 1.3 2.4 1.3 2.4 1.4-.9 0-3.7 1.2-4.2 2.7-1 1.1 2.3 1.1 2.3 2.3-.7l1.2-3 1.4 2.7c1.2 2.3 2.1 2.8 5.4 2.8 3.3 0 4 .4 4 1.9 0 1 .7 2.2 1.6 2.5 1.3.5 1.4 1.6.9 6.1-.6 4.7-.5 5.5.9 5.5.9 0 1.6-.5 1.6-1.1 0-.6.5-.7 1.3-.2.6.4 2.6.8 4.3.9 4.4.2 5.4 1 5.4 4.5 0 4.4 1.7 5.5 9 5.4 5.4 0 6.5-.3 6.8-1.8.5-2.3 8.2-2.5 8.2-.1 0 2.5 2.9 4.9 4.3 3.5 1.8-1.8 2.7-1.3 2.7 1.6 0 2.1.3 2.4.9 1.4.8-1.2 1.5-1.2 3.3-.4 1.3.6 4.7.8 7.6.5 3.6-.3 5.2-.1 5.2.7 0 .7.5.9 1 .6 2.1-1.3 4 1.7 4 6.1 0 2.8.5 4.5 1.3 4.6.6.1-2.4.5-6.8.8-4.4.3 17.3.7 48.3.8l56.2.2V982c0-157.3-.3-237-1-237-.5 0-1 .6-1 1.4zm-452.5 267.5c.3.5.1 1.2-.5 1.6-.5.3-1-.1-1-.9 0-1.8.6-2.1 1.5-.7zm59.2 26.7c-.3.3-1.2.4-1.9.1-.8-.3-.5-.6.6-.6 1.1-.1 1.7.2 1.3.5zm76.9 41.1c-1 1.1-3.6 1.2-3.6.2 0-.5 1-.9 2.2-.9 1.2 0 1.8.3 1.4.7zm6.1 5c-.4 1.7-.4 1.7-1.2 0-.4-.9-.4-2.5 0-3.5.8-1.6.8-1.6 1.2 0 .3 1 .3 2.6 0 3.5zm10.3 3.3c0 .5-.4 1-1 1-.5 0-1-.5-1-1 0-.6.5-1 1-1 .6 0 1 .4 1 1zm11.3 14.7c-.7.2-1.9.2-2.5 0-.7-.3-.2-.5 1.2-.5s1.9.2 1.3.5zm13.4 14.5c-.2 1.3-.4.3-.4-2.2s.2-3.5.4-2.3c.2 1.3.2 3.3 0 4.5zm49.2 23.7c2.5 2.5 2.8 3.1 1.6 4.1-2.6 2.2-5 .8-5.3-3.3-.2-2-.1-3.7.2-3.7.3 0 1.9 1.3 3.5 2.9zm19.8 7.3c-.3.8-.6.5-.6-.6-.1-1.1.2-1.7.5-1.3.3.3.4 1.2.1 1.9zm-3.2 1.8c.3.5-.1 1-.9 1-.9 0-1.6-.5-1.6-1 0-.6.4-1 .9-1 .6 0 1.3.4 1.6 1zm17.8 1.7c-1.3.2-3.3.2-4.5 0-1.3-.2-.3-.4 2.2-.4s3.5.2 2.3.4zm-10.3 1.3c0 .5-.9 1-2 1s-2-.5-2-1c0-.6.9-1 2-1s2 .4 2 1zm21.5 13c.3.5.1 1-.4 1-.6 0-1.1-.5-1.1-1 0-.6.2-1 .4-1 .3 0 .8.4 1.1 1zm14.5 4c0 .5-1.8 1-4 1s-4-.5-4-1c0-.6 1.8-1 4-1s4 .4 4 1zm80 42.9c0 1.1.8 2.2 1.8 2.4.9.3.1.5-1.8.6-5.3.1-8-.9-8-3 0-1.5.7-1.9 4-1.9s4 .3 4 1.9z"/><path d="M2600 755.4c0 .2.7.7 1.6 1 .8.3 1.2.2.9-.4-.6-1-2.5-1.4-2.5-.6zM1531 807.4c0 .8.4 1.7.9 2 .5.4.7-.3.4-1.4-.6-2.3-1.3-2.6-1.3-.6zM1533.5 812c.3.5.8 1 1.1 1 .2 0 .4-.5.4-1 0-.6-.5-1-1.1-1-.5 0-.7.4-.4 1zM1539.3 818.4c0 .8.5 1.4 1 1.3.5-.1 1.2.4 1.5 1.2.3.9 0 1.1-.8.6-.9-.6-1.1-.4-.5.4.5.9 1 1 1.8.2s.6-1.7-.9-3.2c-1.6-1.5-2.1-1.7-2.1-.5zM1104.4 826.8c.1 1.6.6 2.9 1.3 2.9.8 0 .9-.7.3-2.3-.5-1.2-.6-2.5-.3-2.8.4-.3.2-.6-.4-.6-.6 0-1 1.3-.9 2.8zM1541 824.9c0 .6.4 1.3 1 1.6.6.3.7-.1.4-.9-.7-1.8-1.4-2.1-1.4-.7zM1100.5 826c.3.5.8 1 1.1 1 .2 0 .4-.5.4-1 0-.6-.5-1-1.1-1-.5 0-.7.4-.4 1zM1107.6 827.3c.3 1 .9 1.5 1.2 1.2.3-.3 0-1.1-.7-1.8-1-.9-1.1-.8-.5.6zM1099.3 841.5c0 .8.4 1.2.9.9.5-.3.6-1 .3-1.5-.9-1.3-1.2-1.1-1.2.6zM1080 844c0 1.3.5 2 1.3 1.7.6-.2 1.2-1 1.2-1.7s-.6-1.5-1.2-1.8c-.8-.2-1.3.5-1.3 1.8zM1090.6 851.7c-.6 1.4-.5 1.5.5.6.7-.7 1-1.5.7-1.8-.3-.3-.9.2-1.2 1.2zM1032.8 897.7c.7.3 1.6.2 1.9-.1.4-.3-.2-.6-1.3-.5-1.1 0-1.4.3-.6.6zM1682 919c0 .5.7 1 1.5 1s1.5-.5 1.5-1c0-.6-.7-1-1.5-1s-1.5.4-1.5 1zM1717.8 928.7c.7.3 1.6.2 1.9-.1.4-.3-.2-.6-1.3-.5-1.1 0-1.4.3-.6.6zM1784 938.1c0 .5.5.7 1 .4.6-.3 1-.8 1-1.1 0-.2-.4-.4-1-.4-.5 0-1 .5-1 1.1zM1000 946c0 .5.5 1 1 1 .6 0 1-.5 1-1 0-.6-.4-1-1-1-.5 0-1 .4-1 1zM1880 948c0 .5.4 1 .9 1 .6 0 1.3-.5 1.6-1 .3-.6-.1-1-.9-1-.9 0-1.6.4-1.6 1zM1951.8 951.5c-.6 3.1 1.2 4.3 4.4 2.8 1.9-.8 2-1 .5-1.6-.9-.3-1.7-.2-1.7.3 0 .6-.5 1-1.1 1-.5 0-.7-.4-.4-1 .3-.5.2-1.7-.3-2.6-.8-1.4-1-1.2-1.4 1.1zM1956.8 955.1c-2.1 1.1-3.8 2.1-3.8 2.4 0 .7 5.3-1.7 7-3.2 1.8-1.6 1.4-1.5-3.2.8zM1940 962.5c-1.4.8-2 1.4-1.5 1.4.6 0 2.1-.6 3.5-1.4 1.4-.8 2.1-1.4 1.5-1.4-.5 0-2.1.6-3.5 1.4zM2061.2 981.9c-1.1.6-1 1 .4 1.5.9.3 1.9.4 2.2.1.3-.3-.1-.5-.9-.5-1.1 0-1.1-.2.1-1 .8-.5 1.1-1 .5-1-.5 0-1.6.4-2.3.9zM2071.6 983.2c.3.4 0 .8-.7.8s-1 .2-.8.4c.2.3 2 .1 3.9-.3l3.5-.7-3.2-.5c-1.8-.3-3-.2-2.7.3zM2056.5 984c-1.6.7-1.7.9-.3.9.9.1 2-.4 2.3-.9.7-1.1.7-1.1-2 0zM2066.8 983.7c.7.3 1.6.2 1.9-.1.4-.3-.2-.6-1.3-.5-1.1 0-1.4.3-.6.6zM2049.9 987.1c-1.9 1.6-2 1.8-.4 1 3.4-1.7 5.1-3.1 3.9-3.1-.7 0-2.2.9-3.5 2.1zM2045.2 988.9c-1.1.7-1.1.9 0 1.4.9.3 1.5-.1 1.5-.9s-.1-1.4-.1-1.4c-.1 0-.7.4-1.4.9zM2099.5 994c.4.6 1.1.8 1.6.5 1.4-.9 1.1-1.5-.7-1.5-.8 0-1.2.5-.9 1zM2211 1045c0 .5.7 1 1.5 1s1.5-.5 1.5-1c0-.6-.7-1-1.5-1s-1.5.4-1.5 1zM2241.8 1052.7c1.2.2 3.2.2 4.5 0 1.2-.2.2-.4-2.3-.4s-3.5.2-2.2.4zM2244.8 1068.2c.9.9 1.5.9 2.4 0 .9-.9.7-1.2-1.2-1.2s-2.1.3-1.2 1.2zM2253 1067.4c0 .2.7.6 1.5 1 .8.3 1.5.1 1.5-.4 0-.6-.7-1-1.5-1s-1.5.2-1.5.4zM2264 1074.6c0 .8.5 1.2 1 .9.6-.3 1-1 1-1.6 0-.5-.4-.9-1-.9-.5 0-1 .7-1 1.6zM2288 1095c0 .5.7 1 1.5 1s1.5-.5 1.5-1c0-.6-.7-1-1.5-1s-1.5.4-1.5 1zM933.5 1122.1c-.4.6-.5 1.2-.2 1.5.2.3.7-.2 1-1.1.7-1.7.1-2-.8-.4zM928.6 1124.7c-.6 1.4-.5 1.5.5.6.7-.7 1-1.5.7-1.8-.3-.3-.9.2-1.2 1.2zM929.4 1128.5c-.4 1.7-.9 2.3-1.4 1.5-.4-.7-.9.1-1.3 2.1-.7 4.8-.2 4.7 2.3-.6 1.2-2.5 2-4.9 1.7-5.2-.3-.3-.9.7-1.3 2.2zM2354 1130.6c0 1.4.4 2.3 1 1.9.6-.3 1-1.5 1-2.6 0-1-.4-1.9-1-1.9-.5 0-1 1.2-1 2.6zM924 1130c1.2.7 1.2 1.3.1 3.3-.7 1.4-1 3.4-.7 4.5.4 1.1.2 2.3-.4 2.7-.5.3-1 1.2-1 1.8.1 2.1 2.4-2.7 2.6-5.3.1-1.4.5-3.7.9-5.3.6-2.2.4-2.7-1.1-2.7-1.6 0-1.6.2-.4 1zM2339 1130.1c0 .5.5.7 1 .4.6-.3 1-.8 1-1.1 0-.2-.4-.4-1-.4-.5 0-1 .5-1 1.1zM2372 1137.9c0 1.9 4.5 4.1 8.2 4.1 3.4 0 3.8-.3 3.8-2.5 0-2.4-.3-2.5-6-2.5-3.3 0-6 .4-6 .9zM2419.5 1162c.3.5 1 1 1.6 1 .5 0 .9-.5.9-1 0-.6-.7-1-1.6-1-.8 0-1.2.4-.9 1zM2503.8 1277.8c-6.9.2-8.8.6-8.8 1.7 0 .8.5 1.5 1.1 1.5.5 0 .7.5.4 1-.4.7-1.4.2-2.6-1.1l-1.9-2.2-2.1 2.4c-1.9 2.2-2.1 2.2-1.5.4.6-1.9.3-2.1-3.1-1.6-2.1.2-3.2.6-2.5.8 2.8 1-.3 2.3-5.4 2.3-4.1 0-5.4.4-5.4 1.5 0 1.5-2.8 1.9-12.5 1.7-2.2 0-3.2.2-2.2.4.9.3 1.7 1.4 1.7 2.5 0 1.6-.7 1.9-5.3 1.9-4.8 0-5.3.2-6.5 3-1.6 3.6-3.7 3.8-6.3.7l-1.9-2.2-1.9 2.2c-2 2.3-5.1 3.1-5.1 1.3 0-.6-1.8-1-4.1-1-2.9 0-4 .4-3.6 1.2.3 1-.7 1.2-3.9.9-5.1-.4-8.6.6-6.6 1.8 1.7 1.1-.7 6-3.3 6.6-7.4 1.5-7.6 1.6-7.1 3.3.8 2.5-4.1 4-13.1 4.1-5.8.1-7.4-.2-8.3-1.7-1-1.4-1.1-1.3-.6.8.9 4.1-2.7 7-8.6 7-4.5 0-4.9.2-4.3 2 .6 1.8.2 2-3.9 2-2.5 0-4.6.4-4.6 1 0 .5-1.8 1-4 1-2.9 0-4-.4-4-1.5 0-.9-.6-1.2-1.5-.9-1 .4-1.3 1.3-1 2.5.5 1.4-.2 2-3.2 2.8-2.1.6-5.3 1.1-7 1.1-1.9 0-3.3.5-3.3 1.2 0 .9-.3.9-1.2 0-1.9-1.9-3.4-1.4-4.6 1.3-.7 1.5-1.7 2.2-2.6 1.9-2.6-1-7.6 2.4-7.6 5.1 0 2.2-.4 2.5-4 2.5-3.1 0-4-.4-4-1.8 0-1.9-5.3-4.9-5.8-3.2-.2.5-.9 1-1.6 1-.9 0-1.2.9-.8 2.5.4 2.1.1 2.4-1.4 1.8-1.4-.5-1.6-.3-1.1 1.1.4 1 .7 2 .7 2.2 0 .2.9.4 2 .4 2.3 0 2.4.3.8 4.7-1.2 3.3-1.3 3.3-7.6 3.3-5 0-6.8.4-7.8 1.7-1.3 1.7-1.3 1.7-1.4 0 0-1.3-.9-1.7-3.9-1.7-2.9 0-4.1.5-4.4 1.7-.4 1.7-.5 1.7-.6 0-.2-3.1-3.8-2-4.5 1.4-.9 4.4-.8 4.7 1.2 5.2 1.3.3 1 .6-1 1.1-1.8.5-2.8 1.5-2.8 2.7 0 1.6-.3 1.8-1.9.9-1.3-.7-2.2-.7-2.6 0-.3.5-3.1 1-6.2 1-5.5 0-5.5 0-5 2.8.9 4.2-.3 5.4-3.7 3.7-1.6-.8-3.2-1.5-3.7-1.5-1.4 0-1.1 3.8.4 4.3.6.3-1.2.6-4 .6-2.9.1-5.3-.4-5.3-.9 0-.6-.9-1-2-1s-2 .4-2 1c0 .5-.9 1-2 1s-2 .4-2 1c0 .5-1.7 1-3.9 1h-3.9l-.6 5.7c-1.1 9.5-1.7 11.8-2.7 10.2-.5-.8-.9-2.6-.9-4.1 0-1.5-.4-2.9-.9-3.2-1.3-.8-3 3.9-2.4 6.5.4 1.5.3 2-.6 1.5-.7-.5-2.3.5-4 2.3-3.4 3.6-4.1 3.8-4.1 1.1 0-1.8-.7-2-5.6-2-4.7 0-5.7.3-6.1 2-.7 2.5-3 2.6-3.6.2-.3-.9-.5.1-.6 2.2 0 2.2-.4 3.6-.8 3.3-.5-.6-.8-1.9-1.2-6.2-.1-.6-.5-.3-1 .5-.6.8-.7 1.8-.5 2.2.9 1.4-1.6 7.6-3.1 8.2-.8.3-1.5 1.6-1.5 2.8l-.1 2.3-1.3-2.4-1.3-2.4-1.3 3.8c-1.2 3.5-1.3 3.7-2.4 1.8-.6-1.1-1.7-1.8-2.3-1.6-.7.3-1.3 0-1.3-.6 0-1.6-2.9-1.4-4.6.3-.8.8-1.4 3-1.5 4.8l-.1 3.3-1.2-2.7-1.2-2.8-1.2 4.5c-.7 2.5-1.5 4.5-2 4.5-.4 0-1.3-1.4-2-3-1.5-3.4-3-3.9-3.8-1.3-.3 1-.9 2.5-1.4 3.5-.5.9-1 3.5-1.2 5.8l-.2 4.2-2.2-2.7c-1.8-2.3-2.2-2.4-2.8-1-.3.9-.6 2.5-.6 3.6 0 2.3-.8 2.4-3.2.2-1.4-1.3-2.1-1.4-3-.5-1.6 1.6-5.5 1.5-6.1-.1-.4-1-.6-1-.6 0-.1.8-1.6 1.3-3.9 1.3-5.8 0-9.9 5.3-4.9 6.3l2.2.4-2.3.8c-1.6.5-2.1 1.3-1.7 2.5.6 2-2.6 3.7-4.5 2.5-1.9-1.2-5 .6-5 2.8-.1 2-.2 2.1-1.4.4-1.8-2.3-4.2-2.2-4.9.3-.6 2.2-4.7 2.9-4.7.8 0-.9-.3-.9-1.2 0-.8.8-.8 1.5 0 2.5.9 1.1.8 2.5-.5 6.1-1.9 5.1-4.3 6.1-6 2.3l-1-2.2-.7 2.2c-.7 2.3-2.6 3.2-2.6 1.3 0-.6-1.3-1-3-1-1.6 0-3 .5-3 1 0 .6-.8.5-2-.2-1.7-1.1-2.2-1-3 .2-.5.8-1 2.3-1 3.2 0 1.4-.9 1.8-4 1.8-3.9 0-4 .1-4 3.6 0 2.9-.3 3.4-1.7 3-2.1-.7-8.3 4.6-8.3 7 0 .8-.4 1.2-1 .9-.5-.3-1-1.5-1-2.6 0-2.9-1.6-2.3-3 1.1-1 2.3-1.7 2.9-3.1 2.5-3-1-5.9.4-5.9 2.8-.1 2.1-.1 2.1-1.5-.3l-1.5-2.5-.6 2.2c-.3 1.3-1 2.3-1.4 2.3-.4 0-1.1 1.2-1.5 2.7-.5 2-.9 2.3-1.5 1.3-.7-1.1-1.5-.7-3.6 1.8-1.6 1.8-3.4 3.2-4.2 3.2-.7 0-1 .5-.7 1 .4.7-.2.9-1.9.4-4.5-1.1-6.1-1-6.1.6 0 .8 1.7 2.3 3.9 3.2 4.6 2.2 4.3 2.1 4.3.3 0-.9-1.4-1.7-3.4-2.1-1.8-.3-3.6-1.1-4-1.7-.4-.7 0-.8 1.3-.3 1 .4 3.2 1 4.7 1.3 1.8.4 2.6 1.1 2.3 1.9-.7 1.9 2.1 4.4 5 4.4 1.4 0 2.3.4 2 .9-.3.5.4 1.1 1.7 1.4 1.2.2 6.9 2.5 12.7 4.9 12 5.1 36.7 15.4 107 44.5 27.2 11.3 56.8 23.6 65.8 27.4 9 3.8 16.5 6.9 16.8 6.9.2 0 7.7 3.1 16.6 6.9 9 3.8 31.2 13 49.3 20.5 18.2 7.5 35.4 14.8 38.3 16.1 2.9 1.4 5.5 2.5 5.9 2.5.3 0 4.2 1.6 8.7 3.6 12.2 5.5 13.4 6 23.1 9.9 5 2 11.8 5 15.3 6.6 3.5 1.6 6.6 2.9 6.8 2.9.5 0 4.2 1.6 13.9 6 2.2 1 6.7 3 10 4.4 3.3 1.5 7.7 3.6 9.8 4.7 2.2 1 4.3 1.9 4.8 1.9.4 0 3.2 1.1 6.1 2.4 14 6.3 22 9.6 23.3 9.6.8 0 1.5.4 1.5.9s1.7 1.5 3.7 2.2c2.1.7 5.8 2.3 8.2 3.6 2.4 1.2 5.3 2.3 6.3 2.3 1.1 0 1.6.4 1.3 1-.3.5.2 1 1.1 1 1 0 4.5 1.3 7.8 2.9 3.4 1.6 7.6 3.5 9.4 4.2 1.7.8 3.2 1.7 3.2 2.1 0 .5.7.8 1.5.8s2.9.9 4.7 2c1.8 1.1 3.9 2 4.7 2 .8 0 5.1 1.7 9.5 3.9 9.3 4.5 21.2 10 27.4 12.6 2.3 1.1 4.2 2.3 4.2 2.8 0 .4.4.5 1 .2 1.1-.7 7 2.1 7 3.4 0 .4 1.9 1.2 4.3 1.7 2.9.7 4.2 1.4 4.1 2.6-.1 1.2.6 1.6 3.3 1.3 1.8-.1 3.6.2 3.9.7.3.5 1.7 1.3 3 1.8s2.4 1.7 2.4 2.7c0 1.5.2 1.6 1 .3.8-1.2 1.1-1.1 1.6.8.4 1.5 1.2 2.1 2.2 1.7.8-.3 2 0 2.8.6.7.5 2.9 1.2 4.8 1.4 3.8.3 6.6 2.4 6.6 4.9 0 1.3.6 1.5 2.6 1 1.9-.5 2.5-.4 2 .5-1.2 1.8 2 4.1 5.8 4.1h3.6v-488.1l-59.7.3c-32.9.2-63.7.4-68.5.6zm-1.5 1.9c-1.3.2-3.3.2-4.5 0-1.3-.2-.3-.4 2.2-.4s3.5.2 2.3.4zM2472 1290c0 .5-1.9 1-4.2.9-3.7-.1-3.9-.2-1.8-.9 3.6-1.2 6-1.2 6 0zm-46.5 10.3c-.4.8-2.1 1.1-5 .9-6.1-.5-5.7-2.2.5-2.2 3.5 0 4.8.4 4.5 1.3zm5.5-.9c0 1.5-1.4 3.5-2.1 3-1.5-.9-1-3.4.6-3.4.8 0 1.5.2 1.5.4zm-120.2 48.2c-1.1 2.4-1.3 2.5-2.5.8-1.9-2.6-1.6-3.4 1.2-3.4 2.3 0 2.4.2 1.3 2.6zm5.2-1.2c0 .8-.4 1.8-1 2.1-.5.3-1 .4-1 .1 0-.2-.3-1.1-.6-2-.4-1.1-.1-1.6 1-1.6.9 0 1.6.6 1.6 1.4zm3.7.8c-.3.8-.6.5-.6-.6-.1-1.1.2-1.7.5-1.3.3.3.4 1.2.1 1.9zM2284 1362c0 .5-.7 1-1.5 1s-1.5-.5-1.5-1c0-.6.7-1 1.5-1s1.5.4 1.5 1zm3.7 1.2c-.3.8-.6.5-.6-.6-.1-1.1.2-1.7.5-1.3.3.3.4 1.2.1 1.9zm-25.7 6.8c0 .5-.9 1-2 1s-2-.5-2-1c0-.6.9-1 2-1s2 .4 2 1zm-24 14c0 .5-.4 1-1 1-.5 0-1-.5-1-1 0-.6.5-1 1-1 .6 0 1 .4 1 1zm-86.3 53.2c-.3.7-.5.2-.5-1.2s.2-1.9.5-1.3c.2.7.2 1.9 0 2.5zm-43.8 22c0 1.3-.4 3.2-.8 4.2-.6 1.6-1 1.2-1.8-2.2-1-3.8-.9-4.2.8-4.2 1.3 0 1.9.7 1.8 2.2zm4.5-.7c-.4.8-.8 1.5-1 1.5-.2 0-.4-.7-.4-1.5s.4-1.5 1-1.5c.5 0 .7.7.4 1.5zm-65.9 49.5c-.3.5-1.1 1-1.6 1-.6 0-.7-.5-.4-1 .3-.6 1.1-1 1.6-1 .6 0 .7.4.4 1zM835.4 1279c-2.1.8-42.8 6.5-58.4 8.1-4.7.4-11.9 1.3-16 1.9-4.1.5-14 1.7-22 2.5s-17.9 1.9-22 2.5c-4.1.5-10 1.2-13 1.5-3 .3-7.1.7-9 1-1.9.2-6 .7-9 .9-8.8.9-45.2 4.6-49 5.1-1.9.2-6.6.7-10.5 1-3.8.4-8.3.8-9.9 1-1.6.2-6.4.7-10.5 1-4.2.4-8.7.8-10.1 1-1.4.2-8.6.9-16 1.5s-17.5 1.5-22.5 2c-4.9.6-14.6 1.5-21.5 2-6.9.6-25.5 2.1-41.5 3.5-15.9 1.4-37.1 3.2-47 4-9.9.8-20 1.7-22.5 2-2.5.3-13.3 1.2-24 2s-28.3 2.2-39 3c-10.7.9-25.8 2-33.5 2.5-7.7.5-22.1 1.6-32 2.4-9.9.8-22.3 1.8-27.5 2.1-5.2.3-11.3.8-13.5 1-2.2.2-8.3.7-13.5 1-5.2.3-14.7.9-21 1.4-6.3.5-12.2.9-13 .9-.8 0-7.3.5-14.5 1.1-7.1.6-26.5 2-43 3.1s-38.1 2.6-48 3.4c-9.9.8-22.9 1.8-29 2.1-6 .3-18.6 1.2-28 2-9.3.7-22.2 1.6-28.5 2-6.3.3-12.7.8-14.3 1.1l-2.7.6V2632h2632v-847.9l-3-1.6c-3.2-1.6-5.1-1.9-4.9-.8.4 2.3-.3 3.3-2.1 3.3-1.1 0-2-.5-2-1 0-.6-.8-1-1.9-1-1 0-2.4-.6-3.1-1.4-.6-.8-2.6-1.6-4.3-1.8-1.9-.2-3.1-.8-3-1.5.2-.9-1.3-1.2-5-1.1-2.8.1-6.3-.5-7.7-1.2-1.4-.8-3.1-1.3-3.7-1.2-.7.2-1.3-.6-1.3-1.8 0-1.1-.4-2-1-2-.5 0-1 .5-1 1.1 0 .8-.5.7-1.6-.2-.9-.7-2.3-1.4-3.1-1.5-8.1-1.2-15.3-2.9-15.3-3.6 0-.4-1.3-.8-2.8-.8-1.5 0-3.2-.4-3.7-.9-.6-.4-3.2-1.4-5.9-2.1-2.8-.8-7.3-2.5-10-3.8-2.8-1.4-6.2-2.6-7.6-2.7-2.3-.2-3.4-.5-7.7-2.2-1-.3-2.7-.8-3.8-1-3.7-.6-11.5-3.7-11.5-4.5 0-.4-.7-.5-1.5-.2-.8.4-1.5.2-1.5-.4 0-.5-2.4-1.3-5.2-1.6-2.9-.4-5.5-1.1-5.8-1.5-.3-.5-8.1-3.4-17.5-6.6-9.3-3.1-17.5-6.1-18.1-6.6-.6-.5-1.4-.6-1.7-.2-.4.3-.7.1-.7-.5 0-.7-1.2-1.2-2.6-1.2-2.3 0-6.7-1.6-15.9-5.5-1.6-.8-7.9-3-14-5-6-2-11.9-4-13-4.5-2.1-1-7.6-3.2-8.5-3.5-3.3-.8-12.9-3.9-14.3-4.6-.9-.5-3.9-1.6-6.5-2.5-4.8-1.5-5.8-1.9-12.4-4.8-2-.9-4.1-1.6-4.8-1.6-.6 0-3.6-1.1-6.6-2.5-3-1.4-5.9-2.5-6.4-2.5s-7.8-2.7-16.2-6c-8.4-3.3-15.7-6-16.3-6-.5 0-2.8-.9-5-1.9-2.2-1.1-7.4-3.1-11.5-4.6-8.3-2.9-11.5-4.2-14.4-5.7-1.1-.6-5.6-2.3-10-3.8-4.5-1.5-21.4-7.9-37.6-14.2-30.9-12.1-268.9-106.9-275-109.6-8.2-3.6-20-8-20.1-7.4-.1.4-.2 1.6-.3 2.7-.1 1.5-.9 2.1-3.4 2.3-2.7.3-3.2.7-2.7 2.2.3 1 .1 2.1-.5 2.5-.6.4-1-.5-1.1-2.2-.1-2.7-.1-2.7-1.3.7l-1.3 3.5-1.3-2.4c-1.2-2.3-1.3-2.3-2.3-.5-.6 1-1.3 2.1-1.7 2.4-.3.3-1 1.4-1.5 2.5-.8 1.9-.9 1.9-1.3-.3-.6-3.9-3.6-2.3-4.3 2.3l-.6 4-.8-4.3c-1-5.3-3-5.4-3.9-.2-.6 4-.7 4.1-4.1 3.4-2.8-.5-3.5-.3-3.5.9 0 .9-.5 1.9-1.1 2.3-.7.4-1-.1-.7-1.2.2-1.1-.6-3-1.9-4.3-1.7-1.9-2-2.9-1.2-4.3.7-1.2.6-1.8-.1-1.8-1.2 0-2.7-3.5-3.5-8.1-.3-1.6-1.1-4.8-1.9-7.2-.7-2.3-1.9-6.8-2.7-10.1-1.1-5-1.7-6-4.3-7.1-3.4-1.4-5-1-2.6.6 1.2.8 1 .9-.7.4-1.2-.3-2.4-.1-2.8.5-.4.6-1.8 1.5-3.2 2.1-2.9 1.1-2.6 3.3.6 3.7 2.7.4 2.3 2.7-.5 2.7-1 0-2.3-1-2.9-2.3-.5-1.2-1.6-2.2-2.3-2.2-.7 0-1.6-1-2.1-2.3-.5-1.2-2-3.2-3.4-4.5-2.4-2.3-2.4-2.3-3-.3-.3 1.2-.1 2.1.4 2.1 1.8 0 .9 1.8-1.2 2.3-1.2.3-1.8 1-1.4 1.6 1.2 2-.6 5.1-3.8 6.5l-3.2 1.4 3 1.2c2.9 1.2 2.9 1.3.9 2.2-1.5.7-2 1.6-1.6 3.4.2 1.4 0 2.4-.7 2.4s-1.1 2-1.1 5.2c0 6.9-2.4 11.9-6.6 14-1.8 1-4 1.5-4.7 1.2-1.9-.7-4.7 5.9-4.7 11.1 0 3.3-.4 4.5-1.5 4.5-2.3 0-1.8 1.7.8 2.5 1.9.7 1.8.8-1.3 1.2-1.9.2-4 1-4.5 1.7-.6.8-1.9 1.6-3 1.9-1.1.4 0 .5 2.5.3s3.9-.2 3.2.1c-.6.3-1.5 2.2-1.8 4.4-.4 2.3-1.2 3.9-2 3.9-.7 0-1.6 1.6-2 3.7-.3 2.1-1.3 4.9-2.1 6.2-1.1 1.7-1.2 2.6-.4 3.4 1.5 1.5 1.4 2.7-.2 2.7-2.4 0-7 4.7-6.4 6.4.4 1.1.1 1.6-1 1.6-1.3 0-1.4.3-.5 1.2.7.7 1.2 1.8 1.2 2.6 0 1.2-.3 1.2-1.5.2-2.4-2-3.1-.3-.9 2.1l1.9 2.2-3.5-.6c-3-.6-3.2-.5-1.5.5 3.9 2.2 4.4 4.1 1.5 6.5-1.2 1.1-2 3-2 4.9 0 4-.9 6.6-2.1 5.8-1.9-1.1-6.4 4-6.6 7.4-.1 2.5.2 3.2 1.3 2.8.9-.3 1.4.1 1.4 1.4 0 1 .5 2.2 1 2.5.6.4.8 1 .5 1.5-.5.8 1.8 5.4 3.5 7 .3.3 1.3 2.1 2.4 4 1 1.9 3.2 6 4.9 9 1.6 3 3.4 6.3 3.9 7.2.4 1 1.3 2.7 1.8 3.8 1.6 3.2 1.3 3.6-4.3 5-4.1.9-5.9 1-7.5.1-1.8-.9-2.2-.9-2.2.2 0 .8 1 1.9 2.3 2.4 1.7.8.3 1-5.5.6-5.5-.4-7.8-.3-7.8.6 0 1.5-2.7 1.4-3.3-.2-.3-.8-1-.5-2.1 1-1.5 1.9-2 2.1-3.7 1-1.7-1-2.2-.9-3.5.7-1.7 2.4-1.9 5-.2 4 .7-.4.8-.3.4.4-1.2 2-4.6 1.4-4.6-.7 0-2.7-1.7-3.5-2.5-1.2-.3 1.2-1.7 2.1-3.3 2.4-2.7.3-2.7.3-.4 1.3 2.1.9 2.1 1-1.3 2.8-3.6 1.9-5.8 1.5-3.7-.6 1.5-1.5 1.6-2.8.2-2.8-.5 0-1 .7-1 1.5 0 1.1-1.1 1.5-3.7 1.5-3.2 0-4.1.6-6.1 3.5-1.2 1.9-2.8 3.5-3.5 3.5-.6 0-2.4.7-3.9 1.4-1.6.8-2.8 1.1-2.8.6 0-1.4-6.2-.3-7.1 1.2-.6.9-.1 1.5 1.4 1.9 1.8.4 1.5.7-1.8 1.3-2.1.4-5.2 1.4-6.7 2.2-2.5 1.3-2.8 1.3-2.8-.1 0-2.7-2.5-1.6-4.5 2.2-1.1 2-2.9 4.1-4 4.7-1.1.6-2.3 1.5-2.7 2.1-.5.6-.8.4-.8-.5 0-1.3-.1-1.3-1.1 0-.8 1.1-.9.8-.5-1.5.4-2 .3-2.5-.2-1.6-.8 1.1-1 1.1-1.5 0-.4-.8-.4-.1-.1 1.6l.5 3-1.4-3c-1.3-2.9-1.4-2.9-2.1-.8-.6 1.9-1.5 2.3-4.6 2.3-2.5 0-4 .5-4.4 1.6-.9 2.3-.8 2.4 1.6 2.4 1.2 0 1.8.3 1.5.7-.4.4-3.1.6-6 .5l-5.2-.1 4 1.3 4 1.2-3.5.8c-2.3.6-3.5.5-3.8-.3-.5-1.4-3.2-1.5-3.2 0 0 .6-1 1-2.2.9-1.3-.1-4.8-.1-7.8.1s35 .6 84.5.9l89.9.5 20.6 33c67.5 108.2 106.8 171.3 107.9 173.2l1.2 2.3-261.8.2c-144 .1-259 .3-255.5.5 3.4.2 6.2.7 6.2 1.1 0 1.6-3.8 6.3-4.2 5.2-.3-1-.9-1-2.6-.1-1.3.7-2 1.7-1.6 2.3.4.7-.7.9-3.2.6-2.2-.3-3.1-.3-2.1-.1 2.5.6 2.1 2.3-.5 2.5-1.3 0-3.6.2-5.1.3-1.8.1-3.7 1.3-5.1 2.9-1.3 1.8-3.6 3.1-6.1 3.6-5 1-16.8 5.2-17.6 6.3-.3.4-2.3 1-4.5 1.3-3.7.5-7.6 1.7-11.9 3.4-2.3 1-6.7 1.8-14.2 2.7-2.9.3-5.3 1.1-5.3 1.7 0 .6-.5.4-1-.4-.9-1.3-1.1-1.3-2 0-.9 1.3-1.1 1.3-2 0-.8-1.3-1.1-1.3-2.2.3-1 1.4-3.5 1.8-12.3 2.3-6 .3-12.6 1-14.5 1.6-3.8 1.1-23 2.6-22.5 1.8.2-.3-6.7-.5-15.3-.6-8.7 0-18.2-.6-21.3-1.3-6.1-1.3-30.1-3.2-30.9-2.4-.3.2.4 1.1 1.4 1.9 1.9 1.3 1.8 1.4-.9 1.4-4.4 0-9.5-2.2-9.5-4.1 0-1.6-4.6-3.6-5.8-2.4-.3.3.2.5 1.1.5 1 0 1.7.5 1.7 1.1 0 .7-.6.8-1.7.3-1-.4-4.4-.7-7.7-.6-4.8.2-6.1 0-7.2-1.6-.9-1.3-2.1-1.8-3.7-1.5-1.4.3-2.8 0-3.1-.6-.4-.5-1.3-.8-2-.5-.7.3-3.3-.6-5.8-2-2.8-1.6-5.4-2.3-6.9-2-1.7.4-2 .3-1.1-.4 1-.7.5-1.1-2.2-1.6-1.9-.4-4.2-1.6-5-2.7-1-1.5-1.5-1.7-1.8-.7-.4 1-.9 1-2.4-.3-1-.9-3.2-1.9-4.9-2.3-3.7-.9-11.3-4.4-12.1-5.7-.3-.5-1.4-.9-2.5-.9-1 0-1.9-.5-1.9-1.2 0-.6-.3-.8-.7-.5-.3.4-1.3.1-2.2-.6-.9-.7-3.5-2-5.9-2.7-2.4-.7-4.6-1.9-5-2.5-2.2-3.7-2.8-3.7-127.1-4.3-66.9-.4-114.6-.9-106.1-1.2 12-.5 13.6-.7 7.3-.9-4.6-.2-8.7-.5-9.3-.6-.5-.1-2-.3-3.2-.5-1.3-.1-1.7-.4-1-.7 2-.8.3-2.3-2.6-2.4-1.5 0-2.1-.3-1.4-.6.6-.2 1.2-1.6 1.2-2.9 0-2.7-.9-4.1-5.9-9l-3.5-3.4h7.5l-.3-4.2c-.2-2.4-.9-4.3-1.7-4.6-.8-.3-1.1 0-.8.5.3.5.2 1.5-.4 2.3-.7 1.3-.9 1.2-.9-.3 0-.9-.4-1.7-1-1.7-.5 0-1 .5-1 1.2 0 .9-.3.9-1.2 0-.7-.7-2.5-1.2-4-1.2-2.6 0-2.8-.3-2.8-3.9 0-3.7.2-4 3.3-4.3l3.2-.3-3-3-3-3-.3 3.2c-.2 2.5-.8 3.3-2.3 3.3-1.6 0-1.9-.7-1.9-3.9s-.6-4.4-3-6.3l-3-2.4 2-2.1c2.1-2.3 2.9-9.3 1-9.3-.5 0-1 .4-1 1 0 .5-1.3 1-3 1-2.3 0-2.8-.4-2.3-1.6.5-1.4.1-1.5-2.5-.9-3.2.7-3.2.6-3.2-3.4 0-2.6.5-4.1 1.3-4.1s.7-.4-.3-1c-1.2-.8-1.3-1.1-.1-1.9 1.1-.7 1.1-1 0-1.7-.7-.4-1.4-.3-1.7.4-.2.7-1 1.2-1.9 1.2-.9 0-1.2-.6-.8-1.9.3-1.2 0-2.1-1-2.4-.8-.4-1.8-2.4-2.1-4.7-.6-3.6-.9-4-3.5-4-2.5 0-2.9-.4-2.9-2.9 0-1.7-.4-3.3-1-3.6-.5-.3-1-3.1-1-6.1 0-5.1-.2-5.5-2-4.9-1.7.5-2 .2-2-2.5s.3-3 2-2.5c1.1.4 2 .2 2-.4 0-.6-.7-1.1-1.5-1.1-2.2 0-5.5-3.7-4.9-5.4.4-1-.3-1.7-2-2.2-1.6-.4-2.8-1.5-3.2-3-.3-1.3-1.1-2.4-1.6-2.4-.6 0-.9-2.4-.6-5.8l.3-5.7-3.2.3c-1.9.2-3.3-.1-3.3-.7s.7-1.1 1.5-1.1 1.5-.9 1.5-2-.7-2-1.5-2c-1.1 0-1.5-1.2-1.5-5 0-4.7-.2-5-2.5-5-2.5 0-3.4-1.7-3.3-6.5.1-5-1.6-17.5-2.3-17.5-.4 0-1 1.9-1.2 4.2l-.4 4.3-.1-4.6c-.1-3.1-.7-4.9-1.7-5.3-.8-.3-1.5-1-1.5-1.6 0-.5.7-1 1.5-1 2.5 0 1.7-2.1-1.4-3.3-2.7-1-2.9-1.5-3.5-7.9-.3-3.8-.4-7.4-.1-7.9.4-.5-.5-.9-1.9-.9-2.3 0-2.6-.4-2.6-3.4 0-2.9-.3-3.4-2-3.1-1.1.2-2 0-2-.5s-2.6-1.1-5.7-1.3c-3.2-.2 23-.5 58.2-.7 35.2-.2 65.4-.4 67-.5 1.7-.1 7.1-.3 12-.5 6.5-.2 8.2-.4 6-1-2.9-.7-2.9-.8-.5-1 1.7-.2 1-.5-2-1l-4.5-.7 3.8-.1c3.8-.2 4.9-1.5 2.2-2.6-.8-.3-1.5-.1-1.5.4 0 .6-.8 1-1.7.9-1 0-1.3-.3-.6-.5 1.4-.6-1.7-8.4-3.4-8.4-.7 0-2-1.6-2.9-3.6-.9-2-2.5-4.1-3.6-4.7-1.9-1.3-2.5-3.7-.8-3.7.6 0 1 .7 1 1.5s.5 1.5 1 1.5c2 0 .9-2.5-2-4.9-2.3-1.7-3-3.2-3-5.7 0-1.8-.4-3.6-1-3.9-.5-.3-1-2.4-1-4.6 0-3.6-.2-3.9-2.9-3.9-2.6 0-2.9-.4-3.4-4.5-.4-2.5-1.4-5.6-2.3-7-.9-1.4-1.3-3.2-1-4.1.9-2.4-.6-4.2-1.6-1.8-.5 1.2-.6.3-.2-2.4.4-2.7.2-4.2-.5-4.2-.6 0-1.1.6-1.2 1.2 0 .7-.5 0-.9-1.5-.5-1.6-.6-3.5-.3-4.3.3-.8 0-1.4-.6-1.4s-1.1-1.3-1.1-2.9c0-1.8-.8-3.4-2.2-4.3-1.2-.8-2.3-2.6-2.3-3.9-.2-4.3-2.7-14.9-3.5-14.9-.5 0-1.1.6-1.4 1.2-.3.7-.2 0 .1-1.6.5-2.4.3-2.8-1.1-2.3-1.2.5-1.6.1-1.7-1.6-.2-6.1-.6-7.9-1.8-8.7-.8-.4-1.1-1.5-.8-2.3.3-.8 0-2-.6-2.7-.9-1-.9-1.4.1-1.7 1.7-.7 1.5-2.1-.8-4.5-1.1-1.2-2-3-2-3.9 0-1-.5-2.1-1-2.4-.6-.4-.8-1.1-.5-1.6.4-.5-.1-1.2-1-1.5-1.2-.5-1.3-.9-.4-2s.8-1.8-.5-3.2c-.9-1-1.6-3.5-1.6-5.5 0-2.9-.4-3.7-1.7-3.7-1.5 0-1.6-.2-.3-1 1.3-.9 1.3-1.1 0-2-1.3-.9-1.3-1.1 0-2.1 1.1-.8 1.2-1.2.3-1.6-.8-.3-1.3-2.3-1.3-4.9 0-2.4-.4-4.4-1-4.4-.5 0-1-1.8-1-4.1 0-3.2-.3-4-1.5-3.5-1.2.4-1.5-.4-1.5-3.9 0-2.5-.4-4.5-1-4.5-.5 0-1-2-1-4.4 0-2.4-.7-6.3-1.5-8.6s-1.5-6-1.5-8.1c0-2.8-.4-3.9-1.5-3.9-.9 0-1.2.6-.9 1.7.5 1.4.4 1.5-.4.4-.7-1-.6-2.1.6-3.7 1.4-1.9 1.8-2 2.3-.6.3.9.8 1.1 1.1.6.4-.5.1-1.7-.6-2.7-1.2-1.5-1.8-1-5.6 5-2.4 3.8-6.5 10.2-9.2 14.3-2.6 4.1-4.6 8.1-4.3 8.8.3.7.1 1.1-.4.8-.5-.3-6.4 8.3-13.2 19.1-6.8 10.8-14.2 22.5-16.4 25.9-2.2 3.5-7 11.2-10.8 17.1-3.7 5.9-9.1 14.5-12 19-5.4 8.5-13.4 21.3-41 65.3-8.8 14-17.8 28.2-20.1 31.5-2.2 3.3-4 6.2-4 6.5.1.6-4.2 7.6-13.7 22.3-3.6 5.6-7.8 12.1-9.3 14.5l-2.7 4.3-2.9-1.8c-3.6-2.1-3.7-2.6-.9-5.4l2.1-2.1-3.4.4c-3.1.3-3.3.1-3-2.5.2-1.9-.3-3.4-1.6-4.6-1.1-.9-2.3-3.4-2.7-5.4-.8-3.9-2.1-4.9-2.7-2-.2 1-.4-1-.3-4.4 0-3.5.3-6.3.8-6.3.4 0 .7-.7.7-1.5s-.4-1.5-1-1.5c-.5 0-1 .5-1 1.1 0 .5-.5.7-1.1.3-.6-.3-.9-1.7-.6-3 .4-2.4-1.5-3.4-2.8-1.4-.4.6-1.1.5-1.9-.3-1.2-1-1.2-1.3 0-2 1.9-1.1 1.8-2.7-.1-2.7-2 0-1.9-1.7.3-2.9 1.6-1 1.6-1-.2-1.1-1.6 0-1.6-.2-.5-1.6 1-1.3 1-1.7-.1-2.4s-1.1-1.1-.1-2.4c.9-1.1 1-1.6.2-1.6-.7 0-1.1-1.9-1.1-4.9 0-3-.5-5.1-1.2-5.4-1-.4-.9-.8.2-1.7 1.1-.9 1.2-1.3.3-1.7-.8-.3-1.3-2.3-1.3-4.9 0-2.6-.4-4.3-.9-3.9-.5.3-1.2.1-1.6-.5-.3-.5.2-1 1.1-1 1.5 0 1.5-.3-.4-2-2.7-2.5-2.8-3.6-.4-4.9 1.5-.9 1.5-1 .1-1.1-2.2 0-4.1-2.4-3-3.6 1.1-1.2.1-11.5-1-10.8-.5.3-.9 0-.9-.5 0-.6.5-1.1 1-1.1 1.6 0 1.2-12.3-.4-14.6-1.4-1.8-1.5-1.8-2.5.6-.6 1.5-1 1.9-1 .9-.1-1.7 2.8-4.9 3-3.3.1 1.9 1.8-3.3 1.8-5.9.1-1.5.6-2.7 1.2-2.7.5 0 .7.4.4 1-.3.6.1.7.9.4 1.9-.7 2.1-4 .4-4.7-.7-.2-2.2.3-3.2 1.2-1.8 1.5-1.9 1.5-1.3-.2.4-1 .7-2.5.7-3.3 0-.7.6-1.1 1.4-.8 2 .8 2.8-1 1.6-3.8-1-2.2-1-2.2-.6.5.2 1.8 0 2.5-.6 1.9-.5-.5-.6-2.6-.2-4.7.5-2.7.9-3.3 1.6-2.3.7.9.8.6.4-1.1-.3-1.3.8-8 2.5-14.8 1.6-6.8 2.9-13.4 2.9-14.6 0-1.8.2-1.9 1-.7.7 1.2.9.9.8-1-.3-4.9.2-8.1 1.2-7.5.5.3.7 0 .4-.8-.4-1.2 1.6-10.9 7.1-33.2 1.6-6.5 13.8-59.8 15-65.4.5-2.5 1-3 1.6-2 .7 1 .8.6.4-1.2-.4-1.4.5-7.5 2-13.5 3.5-14.9 7.4-31.6 12.4-53.4 1.1-4.7 3.6-15.4 5.6-23.8 3.9-16.7 2.1-13 24.5-50.7 4.5-7.7 9.1-15.4 10-17 .9-1.7 5.4-9.3 10-17 4.5-7.7 9.1-15.6 10.2-17.5 1.1-1.9 4.2-7.2 6.9-11.8l4.9-8.2-2.8.1c-1.5 0-3.6.4-4.8.9zm1036.3 252.2c-.3.8-.6.5-.6-.6-.1-1.1.2-1.7.5-1.3.3.3.4 1.2.1 1.9zm-962.2-.2c-.3.5-.3 1.5.1 2.1.5.8.9.7 1.4-.1.5-.8.7-.4.7 1.2-.1 1.3-.7 2.5-1.4 2.5s-1-.4-.7-.9c.3-.5 0-1.5-.6-2.3-1.1-1.3-.7-3.5.6-3.5.3 0 .2.4-.1 1zm1049.9 6.6c.9.8 2.1 1.2 2.7.8.8-.4.9-.3.5.4s0 1.2 1.1 1.3c1.1 0 1.3.3.5.6-.7.3-2.5-.3-4-1.4-1.5-1-3.8-2.1-5.2-2.4l-2.5-.7 2.7-.1c1.5 0 3.4.6 4.2 1.5zm-3.9 4.2c-.8.9-2.5-2-1.8-3.1.3-.5 1-.2 1.5.7.6 1 .7 2 .3 2.4zm-1051.9.6c0 1.4-.5 2.1-.9 1.7-.4-.4-.5-1.5-.1-2.4.9-2.4 1.2-2.1 1 .7zm953.9 15.6c.3.5.1 1-.4 1-.6 0-1.1-.5-1.1-1 0-.6.2-1 .4-1 .3 0 .8.4 1.1 1zm-1137.6 92.7c0 .5-.4 1.7-.9 2.8-.8 1.8-.9 1.7-.9-.8-.1-1.5.4-2.7.9-2.7.6 0 1 .3.9.7zm.1 10.4c0 .6-.4.7-1 .4-.5-.3-1-1.1-1-1.6 0-.6.5-.7 1-.4.6.3 1 1.1 1 1.6zm-2.7 2.1c-.3.5-.9 2.2-1.3 3.6-.7 2.5-.8 2.4-.7-.9 0-2.2.5-3.6 1.3-3.6.7 0 1.1.4.7.9zm2.5 6.8c0 .9-.3.7-.8-.5-.5-1.1-.8-2.9-.8-4 0-1.6.2-1.5.8.5.4 1.4.8 3.2.8 4zm-2.2 3.6c-.4.9-.9 1.5-1.1 1.2-.3-.3-.3-1.3.1-2.2.4-.9.9-1.5 1.1-1.2.3.3.3 1.3-.1 2.2zm-3.9.6c-.3.8-.6.5-.6-.6-.1-1.1.2-1.7.5-1.3.3.3.4 1.2.1 1.9zm5 4c-.3.8-.6.5-.6-.6-.1-1.1.2-1.7.5-1.3.3.3.4 1.2.1 1.9zm-6 1c-.3.8-.6.5-.6-.6-.1-1.1.2-1.7.5-1.3.3.3.4 1.2.1 1.9zm-2 7c-.3.8-.6.5-.6-.6-.1-1.1.2-1.7.5-1.3.3.3.4 1.2.1 1.9zm-1 13c-.3.8-.6.5-.6-.6-.1-1.1.2-1.7.5-1.3.3.3.4 1.2.1 1.9zm-4 9c-.3.8-.6.5-.6-.6-.1-1.1.2-1.7.5-1.3.3.3.4 1.2.1 1.9zm130 28.4c-.3.3-1.2.4-1.9.1-.8-.3-.5-.6.6-.6 1.1-.1 1.7.2 1.3.5zm-103.7 7.5c0 .5-1 .9-2.1.9-1.8 0-1.9-.2-.9-1.5 1.2-1.5 3-1.2 3 .6zm116-.1c0 .5-.8 1-1.7 1-1.5 0-1.6-.2-.3-1 1.9-1.2 2-1.2 2 0zm8.4 10.5c-.4.8-1 1.2-1.5.9-1.4-.8-1-2.4.6-2.4.9 0 1.2.6.9 1.5zM742 1778c0 .5-.4 1-1 1-.5 0-1-.5-1-1 0-.6.5-1 1-1 .6 0 1 .4 1 1zm5.1 4c.5 0 .9.8.9 1.7 0 1.5-.2 1.6-1 .3-.7-1.2-1.2-1.2-2.2-.2-2.2 2.2-2.7 1.3-1-1.8 1.1-2 1.8-2.5 2-1.5.2.8.8 1.5 1.3 1.5zm2.9-2c0 .5-.4 1-1 1-.5 0-1-.5-1-1 0-.6.5-1 1-1 .6 0 1 .4 1 1zm-4.4 7.8c-.8 2.5-3.6 3.7-3.6 1.6 0-.8.5-1.2 1.1-.9.6.4 1.3-.3 1.6-1.4.3-1.2.8-2 1-1.7.3.2.2 1.3-.1 2.4zm-3.1 6c-.3.3-1.1 0-1.8-.7-.9-1-.8-1.1.6-.5 1 .3 1.5.9 1.2 1.2zm-2.9 4c-1.7 1.6-1.8 1.6-.5-.5.7-1.2 1.5-2 1.8-1.7.3.2-.3 1.2-1.3 2.2zM893 1853c0 .5-.2 1-.4 1-.3 0-.8-.5-1.1-1-.3-.6-.1-1 .4-1 .6 0 1.1.4 1.1 1zm27 33.8c0 2.8-3.1 4.1-6 2.5-1.6-.8-1.9-1.3-.9-1.3.9 0 2.2-.7 2.9-1.5 1.7-2 4-1.9 4 .3zm17.5 43c-.3.3-1.1 0-1.8-.7-.9-1-.8-1.1.6-.5 1 .3 1.5.9 1.2 1.2zm-281.9 5.7c-.3.8-.1 1.5.4 1.5.6 0 1-.5 1-1.2 0-.9.3-.9 1.2 0 .7.7 2.8 1.2 4.8 1.3 1.9 0 2.9.3 2.3.6-2.2.8-1.4 2 1 1.6 1.4-.3 3.1.2 4 1.2 1.4 1.4 1.7 1.4 1.7.2 0-.8-.7-1.7-1.5-2.1-.8-.3-1.2-1.2-.9-2 .5-1.3.8-1.3 2-.2.9 1 3.5 1.3 9.4 1 6.5-.3 8-.1 8 1.1 0 2.1 2 1.9 2.1-.3.1-1.6.2-1.6.6 0 .5 2.2 3.3 2.4 3.3.3 0-.8.8-1.5 1.8-1.4 1 0 1.2.3.5.6-2.8 1.1-1 2.3 3.5 2.3 3.3 0 4.3.3 3.2 1-1 .6 1.4 1 7.5 1.3 5.1.1 1.5.4-8.2.5-11 .1-17.3-.2-17.3-.8 0-.6-.5-1-1.1-1-.5 0-.7.4-.4 1 .4.6-.5 1-2 1s-2.4-.4-2-1c.3-.6-.1-1-1-1s-1.3.4-1 1c.3.5-.1 1-.9 1-.9 0-1.6-.5-1.6-1 0-.6-.7-1-1.5-1s-1.5.4-1.5 1-3.8 1-9.5 1c-6.7 0-9.5-.4-9.5-1.2 0-.9-.3-.9-1.2 0-.7.7-1.6 1.2-2.1 1.2s-.2-.7.7-1.5c.8-.8 1.9-1.5 2.5-1.5.5 0 1.3-.4 1.6-1 .3-.6-.1-.7-1-.4-1.4.6-1.4.3-.4-2 1.3-2.7 2.5-3.7 1.5-1.1zm70.7 3.2c-1.3.2-3.3.2-4.5 0-1.3-.2-.3-.4 2.2-.4s3.5.2 2.3.4zm-8 2c-1.3.2-3.3.2-4.5 0-1.3-.2-.3-.4 2.2-.4s3.5.2 2.3.4zm16 0c-1.3.2-3.3.2-4.5 0-1.3-.2-.3-.4 2.2-.4s3.5.2 2.3.4zm7 0c-.7.2-1.9.2-2.5 0-.7-.3-.2-.5 1.2-.5s1.9.2 1.3.5zm8 0c-.7.2-1.9.2-2.5 0-.7-.3-.2-.5 1.2-.5s1.9.2 1.3.5zm11.7.3c-.8.5-3.3.9-5.5.8l-4-.1 4.5-.7c2.5-.4 5-.8 5.5-.8.6-.1.3.3-.5.8zm734 5.5c0 .8-.4 1.5-1 1.5-.5 0-1-.7-1-1.5s.5-1.5 1-1.5c.6 0 1 .7 1 1.5zm2.6 0c-.4 2.4-1.6 3-1.6.7 0-1.2.4-2.2.9-2.2s.8.7.7 1.5zm4.4 1.5c0 .5-.4 1-1 1-.5 0-1-.5-1-1 0-.6.5-1 1-1 .6 0 1 .4 1 1zm4-.6c0 .3-.4.8-1 1.1-.5.3-1 .1-1-.4 0-.6.5-1.1 1-1.1.6 0 1 .2 1 .4zm-210 34.6c0 .5-1.8 1-4 1s-4-.5-4-1c0-.6 1.8-1 4-1s4 .4 4 1zm-1.7 2.7c-1.3.2-3.3.2-4.5 0-1.3-.2-.3-.4 2.2-.4s3.5.2 2.3.4zm81.4-.1c-.3.3-1.2.4-1.9.1-.8-.3-.5-.6.6-.6 1.1-.1 1.7.2 1.3.5zm-65.4 1.1c-1.3.2-3.3.2-4.5 0-1.3-.2-.3-.4 2.2-.4s3.5.2 2.3.4zm24 0c-1.3.2-3.3.2-4.5 0-1.3-.2-.3-.4 2.2-.4s3.5.2 2.3.4zm31.4 1.5c-.3.8-.6.5-.6-.6-.1-1.1.2-1.7.5-1.3.3.3.4 1.2.1 1.9z"/><path d="M673.8 1939.7c.7.3 1.6.2 1.9-.1.4-.3-.2-.6-1.3-.5-1.1 0-1.4.3-.6.6zM678.8 1939.7c.7.3 1.6.2 1.9-.1.4-.3-.2-.6-1.3-.5-1.1 0-1.4.3-.6.6zM2461.2 1284.2c.6 1.8 2.8 2.1 2.8.4 0-.9-.7-1.6-1.6-1.6-.9 0-1.4.5-1.2 1.2zM2437 1289.5c0 .8.7 1.5 1.5 1.5s1.5-.4 1.5-.9-.7-1.1-1.5-1.5c-.9-.3-1.5 0-1.5.9zM2442.3 1289.6c0 .7.9 1.4 1.9 1.4 1 0 1.8-.2 1.8-.5 0-.2-.8-.9-1.8-1.4-1.4-.8-1.9-.6-1.9.5zM2295.5 1344c-.3.5.1 1 1 1s1.3-.5 1-1c-.3-.6-.8-1-1-1-.2 0-.7.4-1 1zM2285 1349.6c0 .8.5 1.2 1 .9.6-.4.8-1.1.5-1.6-.9-1.4-1.5-1.1-1.5.7zM2265.6 1358.6c-.9 2.2-.8 2.4.9 2.4.8 0 1.5-.6 1.5-1.4 0-2.2-1.7-2.8-2.4-1zM2271.1 1359.6c0 1.1.3 1.4.6.6.3-.7.2-1.6-.1-1.9-.3-.4-.6.2-.5 1.3zM2256.8 1360.7c.7.3 1.6.2 1.9-.1.4-.3-.2-.6-1.3-.5-1.1 0-1.4.3-.6.6zM2182 1407.5c-1 1.3-.9 1.5.9 1.5 1.2 0 2.1-.6 2.1-1.5 0-.8-.4-1.5-.9-1.5s-1.4.7-2.1 1.5zM2151.5 1424c-.3.5-.1 1 .4 1 .6 0 1.1-.5 1.1-1 0-.6-.2-1-.4-1-.3 0-.8.4-1.1 1zM2066 1471.5c0 .8.5 1.5 1 1.5.6 0 1-.7 1-1.5s-.4-1.5-1-1.5c-.5 0-1 .7-1 1.5zM2029 1494.4c0 1.3-.6 2.7-1.2 2.9-.7.3-.3.6 1 .6 1.7.1 2.2-.5 2.2-2.3 0-1.4-.4-2.8-1-3.1-.6-.3-1 .5-1 1.9zM1868.8 1500.2c.5.5 1.6.8 2.3.6.8-.3.3-.7-1-1.1-1.7-.4-2.1-.3-1.3.5zM1866.5 1502c.3.5.1 1-.6 1s-1 .2-.8.5c.3.2 1.5.2 2.8-.2 1.7-.4 1.9-.8.9-1.4-1.8-1.2-3.1-1.1-2.3.1zM1871 1503.3c-1.6 1.2-1.8 1.8-.7 1.4 1.2-.4 1.7-.1 1.8 1.1 0 1.4.2 1.4.6.2.3-.8 1-1.7 1.4-2 .4-.3.5-1.1.1-1.7-.5-.8-1.5-.5-3.2 1zM1883.9 1506.9c1.1.7.9 1-1 1.4-1.3.2-.4.2 2.1 0 4.2-.3 4.4-.2 2.6 1.2-2.4 1.9-.7 2 1.9.2 1.7-1.3 1.6-1.5-1.5-2.5-3.9-1.4-6.1-1.5-4.1-.3z"/><path d="M1890 1510.6c-3 1.6-5 1.8-5 .4 0-.6-.8-1-1.7-1-3.2 0 .4 2.3 4.1 2.6 2.3.2 3.9-.3 5.1-1.7 2.1-2.2 1.1-2.3-2.5-.3zM1872 1512c0 .5.5 1 1 1 .6 0 1-.5 1-1 0-.6-.4-1-1-1-.5 0-1 .4-1 1zM916.6 1516.7c-.6 1.4-.5 1.5.5.6.7-.7 1-1.5.7-1.8-.3-.3-.9.2-1.2 1.2zM917 1524.5c0 .5.5 1.7 1 2.5s1 1 1 .5c0-.6-.5-1.7-1-2.5s-1-1.1-1-.5zM1865 1530.5c0 .8.5 1.5 1 1.5.6 0 1-.7 1-1.5s-.4-1.5-1-1.5c-.5 0-1 .7-1 1.5zM1944.8 1532.7c.7.3 1.6.2 1.9-.1.4-.3-.2-.6-1.3-.5-1.1 0-1.4.3-.6.6zM1945.3 1535.8c-.8.5.1.8 2.2.8s3-.3 2.2-.8c-.6-.4-1.6-.8-2.2-.8-.5 0-1.6.4-2.2.8zM939 1626.6c0 .8.5 1.2 1 .9.6-.3 1-1 1-1.6 0-.5-.4-.9-1-.9-.5 0-1 .7-1 1.6zM725.2 1632.1c.6 1.6 1.2 2.8 1.4 2.6.5-.5-1.3-5.7-2-5.7-.3 0 0 1.4.6 3.1zM1812.1 1631.6c0 1.1.3 1.4.6.6.3-.7.2-1.6-.1-1.9-.3-.4-.6.2-.5 1.3zM1813.5 1638c.3.5.8 1 1.1 1 .2 0 .4-.5.4-1 0-.6-.5-1-1.1-1-.5 0-.7.4-.4 1zM725.2 1639c0 .8.3 2.4.7 3.4.7 1.9.8 1.9 1.3-.2.4-1.2.2-2-.2-1.7-.5.3-1.1-.3-1.3-1.2-.3-1.2-.5-1.3-.5-.3zM959.2 1671c0 1.4.2 1.9.5 1.2.2-.6.2-1.8 0-2.5-.3-.6-.5-.1-.5 1.3zM1714 1727.4c0 .9.5 1.6 1 1.6.6 0 1-.4 1-.9 0-.6-.4-1.3-1-1.6-.5-.3-1 .1-1 .9zM1706.1 1731.6c0 1.1.3 1.4.6.6.3-.7.2-1.6-.1-1.9-.3-.4-.6.2-.5 1.3zM1685.8 1734.7c.7.3 1.6.2 1.9-.1.4-.3-.2-.6-1.3-.5-1.1 0-1.4.3-.6.6zM736 1737c0 .5.5 1 1.1 1 .5 0 .7-.5.4-1-.3-.6-.8-1-1.1-1-.2 0-.4.4-.4 1zM750 1774c0 .5.5 1 1 1 .6 0 1-.5 1-1 0-.6-.4-1-1-1-.5 0-1 .4-1 1zM882.2 1816.4c.1 1 .8 1.7 1.3 1.7 1.5-.1 1.2-2.4-.3-2.9-.9-.3-1.3.2-1 1.2zM904 1860c0 .5.5 1 1 1 .6 0 1-.5 1-1 0-.6-.4-1-1-1-.5 0-1 .4-1 1zM912 1876.1c0 .5.5.7 1 .4.6-.3 1-.8 1-1.1 0-.2-.4-.4-1-.4-.5 0-1 .5-1 1.1zM936.3 1901c0 2.5.2 3.5.4 2.2.2-1.2.2-3.2 0-4.5-.2-1.2-.4-.2-.4 2.3zM936.2 1909c0 1.4.2 1.9.5 1.2.2-.6.2-1.8 0-2.5-.3-.6-.5-.1-.5 1.3zM1454.8 1961.7c.7.3 1.6.2 1.9-.1.4-.3-.2-.6-1.3-.5-1.1 0-1.4.3-.6.6zM1232 1964c0 .5.5 1 1.1 1 .5 0 .7-.5.4-1-.3-.6-.8-1-1.1-1-.2 0-.4.4-.4 1zM1238.8 1966.7c.7.3 1.6.2 1.9-.1.4-.3-.2-.6-1.3-.5-1.1 0-1.4.3-.6.6zM1248 1970.6c0 .8.5 1.2 1 .9.6-.4.8-1.1.5-1.6-.9-1.4-1.5-1.1-1.5.7zM1252.5 1972c.3.5.8 1 1.1 1 .2 0 .4-.5.4-1 0-.6-.5-1-1.1-1-.5 0-.7.4-.4 1zM1261.5 1974c-.3.5.3 1 1.5 1s1.8-.5 1.5-1c-.3-.6-1-1-1.5-1s-1.2.4-1.5 1zM1368.8 1979.7c.6.2 1.8.2 2.5 0 .6-.3.1-.5-1.3-.5-1.4 0-1.9.2-1.2.5z"/></svg>